<?xml version="1.0" encoding="UTF-8" standalone="no"?>
<!DOCTYPE svg PUBLIC "-//W3C//DTD SVG 1.1//EN" "http://www.w3.org/Graphics/SVG/1.1/DTD/svg11.dtd">
<svg width="100%" height="100%" viewBox="0 0 203 268" version="1.1" xmlns="http://www.w3.org/2000/svg" xmlns:xlink="http://www.w3.org/1999/xlink" xml:space="preserve" xmlns:serif="http://www.serif.com/" style="fill-rule:evenodd;clip-rule:evenodd;stroke-linecap:round;stroke-linejoin:round;stroke-miterlimit:2;">
    <g transform="matrix(1,0,0,1,-2.7197e-05,0)">
        <g transform="matrix(1,0,0,1,-80.3769,-703.893)">
            <path d="M104.754,787.207L123.804,787.207C125.251,794.89 130.349,821.433 130.349,823.121L138.494,823.065L138.973,821.275C140.008,816.68 141.472,812.188 142.854,807.683C145.29,812.431 146.626,818.743 147.999,823.445L147.769,854.665L222.735,854.665L222.735,822.744L230.111,816.118C237.132,807.722 239.628,797.625 241.785,787.207L259.607,787.207C260.427,789.62 261.076,791.823 261.598,794.288C263.444,802.865 266.654,810.59 272.508,817.32C275.271,820.416 279.187,822.792 279.187,822.792C279.187,822.792 279.353,828.701 279.349,831.273C279.349,831.273 279.493,882.157 279.42,883.726L277.621,883.353C264.93,880.72 251.349,879.372 238.715,882.975L236.567,883.55C231.072,885.186 226.007,887.514 220.872,890.018C220.872,890.018 217.318,891.516 215.676,892.374C214.707,891.094 205.646,879.655 200.002,876.348C193.196,872.835 187.162,871.783 179.58,871.946C173.406,872.234 168.157,874.433 162.956,877.615C157.899,881.077 154.628,885.534 151.944,890.92C149.782,895.738 149.392,900.977 149.129,906.17L148.997,907.668L148.383,908.27C126.571,909.601 101.128,903.516 81.403,894.415L80.789,893.814C80.728,892.921 80.697,892.023 80.693,891.126L80.675,889.361L80.662,887.411L80.644,885.371C80.627,883.125 80.614,880.879 80.6,878.633L80.587,876.301C80.57,873.063 80.557,869.825 80.548,866.587C80.535,861.97 80.508,857.358 80.469,852.741C80.434,849.087 80.421,845.436 80.416,841.786C80.412,840.244 80.399,838.702 80.381,837.161C80.325,832.097 80.865,822.857 80.865,822.857L86.319,808.289C86.854,809.68 86.854,809.68 87.38,811.509L87.959,813.476L88.547,815.551L89.152,817.633C89.647,819.334 90.134,821.039 90.621,822.744L98.611,822.744L99.106,819.673C99.65,816.332 104.141,789.015 104.754,787.207Z" style="fill:rgb(19,69,183);fill-rule:nonzero;"/>
        </g>
        <g transform="matrix(1,0,0,1,-80.3769,-703.893)">
            <path d="M282.958,895.622C283.318,896.644 283.265,899.423 282.73,900.956L280.783,906.376C278.428,912.753 275.516,918.748 271.894,924.533C266.439,923.528 266.439,923.528 264.154,922.867C253.923,919.921 242.886,920.47 232.567,922.725C219.732,925.869 209.431,932.783 198.81,940.26C187.881,947.938 175.616,952.967 162.517,955.853L161.18,956.149C151.295,958.237 137.482,960.1 127.593,957.137C124.628,955.78 114.358,951.073 104.995,939.766C95.631,928.459 84.62,908.878 84.383,907.903C88.084,908.865 93.085,910.249 96.751,911.332C106.71,914.265 116.599,916.859 126.878,918.508L128.672,918.804C150.265,922.235 171.818,920.9 192.626,914.295L193.859,913.921C201.52,911.606 208.413,907.668 215.408,903.906C237.794,891.916 258.265,890.108 282.958,895.622Z" style="fill:rgb(19,69,183);fill-rule:nonzero;"/>
        </g>
        <g transform="matrix(1,0,0,1,-80.3769,-703.893)">
            <path d="M246.122,931.666C252.025,931.507 257.537,932.418 263.295,933.569L263.295,935.372C254.191,947.38 239.663,956.66 225.845,962.608C219.24,965.344 212.522,967.56 205.532,969.102L204.203,969.402C188.969,972.645 171.27,972.207 156.373,967.899L156.373,967.298L157.571,967.122C178.111,964.099 194.236,957.013 210.645,944.687C219.85,937.863 230.103,933.479 241.557,931.911C243.074,931.799 244.596,931.744 246.122,931.666Z" style="fill:rgb(19,69,183);fill-rule:nonzero;"/>
        </g>
        <g transform="matrix(1,0,0,1,-80.3769,-703.893)">
            <path d="M181.288,707.893C202.171,707.893 219.126,724.497 219.126,744.949C219.126,765.4 202.171,782.004 181.288,782.004C160.405,782.004 143.45,765.4 143.45,744.949C143.45,724.497 160.405,707.893 181.288,707.893Z" style="fill:none;stroke:rgb(19,69,183);stroke-width:8px;"/>
        </g>
        <g transform="matrix(1,0,0,1,-80.3769,-703.893)">
            <path d="M105.155,777.335C105.156,756.883 122.112,740.28 142.995,740.282C163.879,740.283 180.832,756.887 180.831,777.339" style="fill:none;stroke:rgb(19,69,183);stroke-width:8px;"/>
        </g>
        <g transform="matrix(1,0,0,1,-80.3769,-703.893)">
            <path d="M181.415,777.338C181.416,756.887 198.371,740.284 219.255,740.285C240.138,740.286 257.422,756.963 257.421,777.414" style="fill:none;stroke:rgb(19,69,183);stroke-width:8px;"/>
        </g>
    </g>
</svg>
