<?xml version="1.0" encoding="UTF-8" standalone="no"?>
<!DOCTYPE svg PUBLIC "-//W3C//DTD SVG 1.1//EN" "http://www.w3.org/Graphics/SVG/1.1/DTD/svg11.dtd">
<svg width="100%" height="100%" viewBox="0 0 203 359" version="1.1" xmlns="http://www.w3.org/2000/svg" xmlns:xlink="http://www.w3.org/1999/xlink" xml:space="preserve" xmlns:serif="http://www.serif.com/" style="fill-rule:evenodd;clip-rule:evenodd;stroke-linecap:round;stroke-linejoin:round;stroke-miterlimit:2;">
    <g transform="matrix(1,0,0,1,-80.3769,-703.893)">
        <path d="M104.754,787.207L123.804,787.207C125.251,794.89 130.349,821.433 130.349,823.121L138.494,823.065L138.973,821.275C140.008,816.68 141.472,812.188 142.854,807.683C145.29,812.431 146.626,818.743 147.999,823.445L147.769,854.665L222.735,854.665L222.735,822.744L230.111,816.118C237.132,807.722 239.628,797.625 241.785,787.207L259.607,787.207C260.427,789.62 261.076,791.823 261.598,794.288C263.444,802.865 266.654,810.59 272.508,817.32C275.271,820.416 279.187,822.792 279.187,822.792C279.187,822.792 279.353,828.701 279.349,831.273C279.349,831.273 279.493,882.157 279.42,883.726L277.621,883.353C264.93,880.72 251.349,879.372 238.715,882.975L236.567,883.55C231.072,885.186 226.007,887.514 220.872,890.018C220.872,890.018 217.318,891.516 215.676,892.374C214.707,891.094 205.646,879.655 200.002,876.348C193.196,872.835 187.162,871.783 179.58,871.946C173.406,872.234 168.157,874.433 162.956,877.615C157.899,881.077 154.628,885.534 151.944,890.92C149.782,895.738 149.392,900.977 149.129,906.17L148.997,907.668L148.383,908.27C126.571,909.601 101.128,903.516 81.403,894.415L80.789,893.814C80.728,892.921 80.697,892.023 80.693,891.126L80.675,889.361L80.662,887.411L80.644,885.371C80.627,883.125 80.614,880.879 80.6,878.633L80.587,876.301C80.57,873.063 80.557,869.825 80.548,866.587C80.535,861.97 80.508,857.358 80.469,852.741C80.434,849.087 80.421,845.436 80.416,841.786C80.412,840.244 80.399,838.702 80.381,837.161C80.325,832.097 80.865,822.857 80.865,822.857L86.319,808.289C86.854,809.68 86.854,809.68 87.38,811.509L87.959,813.476L88.547,815.551L89.152,817.633C89.647,819.334 90.134,821.039 90.621,822.744L98.611,822.744L99.106,819.673C99.65,816.332 104.141,789.015 104.754,787.207Z" style="fill:rgb(19,69,183);fill-rule:nonzero;"/>
        <path d="M282.958,895.622C283.318,896.644 283.265,899.423 282.73,900.956L280.783,906.376C278.428,912.753 275.516,918.748 271.894,924.533C266.439,923.528 266.439,923.528 264.154,922.867C253.923,919.921 242.886,920.47 232.567,922.725C219.732,925.869 209.431,932.783 198.81,940.26C187.881,947.938 175.616,952.967 162.517,955.853L161.18,956.149C151.295,958.237 137.482,960.1 127.593,957.137C124.628,955.78 114.358,951.073 104.995,939.766C95.631,928.459 84.62,908.878 84.383,907.903C88.084,908.865 93.085,910.249 96.751,911.332C106.71,914.265 116.599,916.859 126.878,918.508L128.672,918.804C150.265,922.235 171.818,920.9 192.626,914.295L193.859,913.921C201.52,911.606 208.413,907.668 215.408,903.906C237.794,891.916 258.265,890.108 282.958,895.622Z" style="fill:rgb(183,38,31);fill-rule:nonzero;"/>
        <path d="M246.122,931.666C252.025,931.507 257.537,932.418 263.295,933.569L263.295,935.372C254.191,947.38 239.663,956.66 225.845,962.608C219.24,965.344 212.522,967.56 205.532,969.102L204.203,969.402C188.969,972.645 171.27,972.207 156.373,967.899L156.373,967.298L157.571,967.122C178.111,964.099 194.236,957.013 210.645,944.687C219.85,937.863 230.103,933.479 241.557,931.911C243.074,931.799 244.596,931.744 246.122,931.666Z" style="fill:rgb(19,69,183);fill-rule:nonzero;"/>
        <path d="M181.288,707.893C202.171,707.893 219.126,724.497 219.126,744.949C219.126,765.4 202.171,782.004 181.288,782.004C160.405,782.004 143.45,765.4 143.45,744.949C143.45,724.497 160.405,707.893 181.288,707.893Z" style="fill:none;stroke:rgb(232,178,48);stroke-width:8px;"/>
        <path d="M105.155,777.335C105.156,756.883 122.112,740.28 142.995,740.282C163.879,740.283 180.832,756.887 180.831,777.339" style="fill:none;stroke:rgb(232,178,48);stroke-width:8px;"/>
        <path d="M181.415,777.338C181.416,756.887 198.371,740.284 219.255,740.285C240.138,740.286 257.422,756.963 257.421,777.414" style="fill:none;stroke:rgb(232,178,48);stroke-width:8px;"/>
        <path d="M108.972,995.279C108.847,996.669 108.764,998.008 108.722,999.299C108.68,1000.59 108.659,1001.58 108.659,1002.26C108.659,1002.84 108.67,1003.41 108.701,1003.97C108.727,1004.52 108.753,1004.98 108.784,1005.34L107.764,1005.34C107.441,1003.05 106.92,1001.25 106.201,999.924C105.477,998.591 104.597,997.654 103.555,997.112C102.514,996.57 101.357,996.299 100.097,996.299L98.909,996.299C98.118,996.299 97.503,996.372 97.076,996.508C96.644,996.633 96.357,996.904 96.222,997.32C96.097,997.727 96.034,998.372 96.034,999.258L96.034,1022.53C96.034,1023.39 96.097,1024.04 96.222,1024.47C96.357,1024.88 96.644,1025.16 97.076,1025.3C97.503,1025.42 98.118,1025.49 98.909,1025.49L100.722,1025.49C101.857,1025.49 102.951,1025.19 103.993,1024.59C105.045,1024 105.982,1022.97 106.805,1021.51C107.623,1020.05 108.243,1018.07 108.659,1015.57L109.68,1015.57C109.581,1016.57 109.534,1017.86 109.534,1019.45C109.534,1020.15 109.545,1021.15 109.576,1022.45C109.602,1023.74 109.691,1025.09 109.847,1026.51C108.347,1026.46 106.649,1026.42 104.764,1026.4C102.889,1026.39 101.211,1026.38 99.743,1026.38L96.826,1026.38C95.659,1026.38 94.378,1026.39 92.993,1026.4C91.618,1026.42 90.222,1026.43 88.805,1026.44C87.399,1026.46 86.081,1026.48 84.847,1026.51L84.847,1025.63C85.748,1025.57 86.43,1025.44 86.889,1025.28C87.347,1025.1 87.649,1024.75 87.805,1024.22C87.972,1023.69 88.055,1022.9 88.055,1021.84L88.055,999.966C88.055,998.872 87.972,998.065 87.805,997.549C87.649,997.039 87.347,996.69 86.889,996.508C86.43,996.315 85.748,996.206 84.847,996.174L84.847,995.279C86.107,995.31 87.435,995.331 88.826,995.341C90.227,995.357 91.607,995.378 92.972,995.404C94.347,995.419 95.623,995.424 96.805,995.424L99.743,995.424C101.102,995.424 102.639,995.419 104.347,995.404C106.066,995.378 107.607,995.336 108.972,995.279ZM102.305,1010.36L102.305,1011.26L94.722,1011.26L94.722,1010.36L102.305,1010.36ZM103.576,1004.55C103.461,1006.22 103.415,1007.5 103.43,1008.38C103.441,1009.26 103.451,1010.07 103.451,1010.8C103.451,1011.54 103.461,1012.35 103.493,1013.24C103.519,1014.11 103.597,1015.39 103.722,1017.07L102.701,1017.07C102.545,1016.02 102.232,1015.05 101.764,1014.17C101.305,1013.29 100.67,1012.58 99.868,1012.05C99.076,1011.52 98.107,1011.26 96.972,1011.26L96.972,1010.36C97.816,1010.36 98.56,1010.19 99.201,1009.82C99.852,1009.45 100.409,1008.97 100.868,1008.38C101.326,1007.8 101.701,1007.17 101.993,1006.49C102.284,1005.81 102.477,1005.16 102.576,1004.55L103.576,1004.55Z" style="fill:rgb(19,69,183);fill-rule:nonzero;"/>
        <path d="M135.392,1003.17L135.392,1021.7C135.392,1023.03 135.584,1024.02 135.975,1024.65C136.376,1025.28 137.063,1025.59 138.037,1025.59L138.037,1026.51C137.121,1026.42 136.204,1026.38 135.287,1026.38C133.938,1026.38 132.683,1026.42 131.517,1026.51C130.36,1026.59 129.272,1026.75 128.246,1026.99L128.246,1023.42C127.537,1024.75 126.569,1025.69 125.35,1026.28C124.126,1026.85 122.735,1027.13 121.183,1027.13C119.892,1027.13 118.855,1026.97 118.079,1026.63C117.298,1026.32 116.704,1025.89 116.287,1025.36C115.813,1024.84 115.475,1024.13 115.267,1023.24C115.058,1022.34 114.954,1021.15 114.954,1019.67L114.954,1008.47C114.954,1007.15 114.756,1006.17 114.371,1005.55C113.996,1004.91 113.308,1004.59 112.308,1004.59L112.308,1003.65C113.251,1003.75 114.168,1003.8 115.058,1003.8C116.402,1003.8 117.662,1003.75 118.829,1003.65C120.006,1003.54 121.1,1003.38 122.1,1003.17L122.1,1021.78C122.1,1022.46 122.173,1023.04 122.329,1023.51C122.48,1023.98 122.73,1024.35 123.079,1024.61C123.423,1024.88 123.897,1025.01 124.496,1025.01C125.162,1025.01 125.772,1024.84 126.329,1024.49C126.897,1024.13 127.355,1023.63 127.704,1023.01C128.063,1022.37 128.246,1021.65 128.246,1020.86L128.246,1008.47C128.246,1007.15 128.048,1006.17 127.662,1005.55C127.287,1004.91 126.6,1004.59 125.6,1004.59L125.6,1003.65C126.527,1003.75 127.438,1003.8 128.329,1003.8C129.673,1003.8 130.938,1003.75 132.121,1003.65C133.298,1003.54 134.392,1003.38 135.392,1003.17Z" style="fill:rgb(19,69,183);fill-rule:nonzero;"/>
        <path d="M140.243,995.279C141.035,995.31 142.087,995.341 143.41,995.383C144.727,995.414 146.056,995.424 147.389,995.424C148.816,995.424 150.201,995.414 151.535,995.383C152.878,995.341 153.832,995.32 154.389,995.32C157.274,995.32 159.649,995.622 161.514,996.216C163.389,996.799 164.79,997.664 165.722,998.799C166.665,999.924 167.139,1001.33 167.139,1003.01C167.139,1004.07 166.92,1005.1 166.493,1006.11C166.076,1007.13 165.358,1008.07 164.347,1008.92C163.332,1009.77 161.931,1010.45 160.139,1010.95C158.358,1011.45 156.123,1011.7 153.431,1011.7L149.181,1011.7L149.181,1010.8L152.972,1010.8C154.597,1010.8 155.826,1010.48 156.66,1009.82C157.503,1009.15 158.082,1008.27 158.389,1007.17C158.691,1006.07 158.847,1004.84 158.847,1003.49C158.847,1001.17 158.477,999.372 157.743,998.091C157.003,996.815 155.753,996.174 153.993,996.174C152.91,996.174 152.207,996.424 151.889,996.924C151.582,997.414 151.431,998.424 151.431,999.966L151.431,1021.84C151.431,1022.9 151.514,1023.69 151.681,1024.22C151.847,1024.75 152.149,1025.1 152.597,1025.28C153.056,1025.44 153.743,1025.57 154.66,1025.63L154.66,1026.51C153.837,1026.46 152.785,1026.42 151.493,1026.4C150.212,1026.39 148.931,1026.38 147.639,1026.38C146.139,1026.38 144.727,1026.39 143.41,1026.4C142.087,1026.42 141.035,1026.46 140.243,1026.51L140.243,1025.63C141.144,1025.57 141.826,1025.44 142.285,1025.28C142.743,1025.1 143.045,1024.75 143.201,1024.22C143.368,1023.69 143.451,1022.9 143.451,1021.84L143.451,999.966C143.451,998.872 143.368,998.065 143.201,997.549C143.045,997.039 142.743,996.69 142.285,996.508C141.826,996.315 141.144,996.206 140.243,996.174L140.243,995.279ZM149.014,1010.95C150.149,1010.98 151.191,1011.04 152.139,1011.13C153.082,1011.22 153.931,1011.29 154.681,1011.36C155.431,1011.44 156.082,1011.48 156.639,1011.51C159.556,1011.69 161.722,1012.25 163.139,1013.17C164.566,1014.09 165.477,1015.47 165.868,1017.3L166.785,1021.88C167.045,1023 167.326,1023.78 167.618,1024.24C167.91,1024.69 168.326,1024.91 168.868,1024.88C169.186,1024.88 169.462,1024.82 169.701,1024.69C169.936,1024.56 170.17,1024.36 170.41,1024.09L171.014,1024.65C170.165,1025.57 169.243,1026.21 168.243,1026.57C167.243,1026.94 166.082,1027.13 164.764,1027.13C163.024,1027.13 161.602,1026.79 160.493,1026.11C159.394,1025.43 158.701,1024.18 158.41,1022.36L157.66,1017.95C157.477,1016.75 157.248,1015.69 156.972,1014.74C156.691,1013.79 156.316,1013.05 155.847,1012.51C155.373,1011.97 154.712,1011.7 153.868,1011.7L149.097,1011.7L149.014,1010.95Z" style="fill:rgb(19,69,183);fill-rule:nonzero;"/>
        <path d="M182.569,1003.05C185.163,1003.05 187.194,1003.82 188.652,1005.34C190.121,1006.87 190.861,1009.38 190.861,1012.88L176.715,1012.88L176.673,1012.05L184.861,1012.05C184.928,1010.61 184.871,1009.27 184.694,1008.05C184.512,1006.83 184.22,1005.85 183.819,1005.11C183.428,1004.38 182.913,1004.01 182.277,1004.01C181.387,1004.01 180.631,1004.64 180.006,1005.9C179.392,1007.17 179.017,1009.32 178.881,1012.34L179.048,1012.65C178.991,1012.99 178.965,1013.32 178.965,1013.65L178.965,1014.74C178.965,1016.77 179.236,1018.38 179.777,1019.59C180.319,1020.79 180.996,1021.63 181.819,1022.13C182.652,1022.63 183.506,1022.88 184.381,1022.88C184.881,1022.88 185.433,1022.82 186.048,1022.67C186.673,1022.52 187.319,1022.21 187.986,1021.74C188.663,1021.27 189.319,1020.58 189.944,1019.67L190.694,1019.95C190.371,1021.09 189.819,1022.21 189.027,1023.32C188.246,1024.42 187.256,1025.33 186.048,1026.05C184.85,1026.77 183.402,1027.13 181.694,1027.13C179.746,1027.13 178.012,1026.73 176.486,1025.92C174.954,1025.11 173.741,1023.82 172.84,1022.07C171.949,1020.32 171.506,1018.04 171.506,1015.22C171.506,1012.42 171.991,1010.13 172.965,1008.34C173.933,1006.55 175.256,1005.23 176.923,1004.36C178.6,1003.49 180.486,1003.05 182.569,1003.05Z" style="fill:rgb(19,69,183);fill-rule:nonzero;"/>
        <path d="M201.902,1034.8C199.985,1034.8 198.303,1034.64 196.86,1034.34C195.428,1034.03 194.308,1033.58 193.506,1032.97C192.715,1032.37 192.319,1031.64 192.319,1030.78C192.319,1029.9 192.725,1029.1 193.548,1028.38C194.381,1027.66 195.652,1027.09 197.36,1026.67L197.756,1027.38C197.256,1027.88 196.902,1028.37 196.694,1028.86C196.485,1029.35 196.381,1029.83 196.381,1030.3C196.381,1031.51 196.923,1032.43 198.006,1033.07C199.1,1033.72 200.6,1034.05 202.506,1034.05C203.84,1034.05 204.985,1033.86 205.944,1033.49C206.912,1033.12 207.662,1032.6 208.194,1031.92C208.72,1031.26 208.985,1030.47 208.985,1029.55C208.985,1028.7 208.662,1027.98 208.027,1027.38C207.402,1026.8 206.136,1026.51 204.235,1026.51L201.673,1026.51C200.407,1026.51 199.319,1026.35 198.402,1026.03C197.496,1025.69 196.803,1025.24 196.319,1024.65C195.829,1024.07 195.59,1023.34 195.59,1022.45C195.59,1021.13 196.1,1020.01 197.131,1019.09C198.157,1018.16 199.579,1017.29 201.402,1016.49L201.798,1016.84C201.366,1017.11 200.949,1017.42 200.548,1017.78C200.142,1018.13 199.944,1018.6 199.944,1019.2C199.944,1020.13 200.506,1020.59 201.631,1020.59L206.173,1020.59C207.933,1020.59 209.491,1020.79 210.84,1021.2C212.199,1021.59 213.267,1022.23 214.048,1023.13C214.824,1024.04 215.215,1025.21 215.215,1026.63C215.215,1028.1 214.741,1029.46 213.798,1030.69C212.85,1031.93 211.402,1032.92 209.444,1033.67C207.496,1034.42 204.985,1034.8 201.902,1034.8ZM202.465,1017.11C200.699,1017.11 199.131,1016.86 197.756,1016.36C196.392,1015.86 195.319,1015.09 194.527,1014.05C193.735,1013.01 193.34,1011.67 193.34,1010.05C193.34,1008.44 193.735,1007.12 194.527,1006.09C195.319,1005.07 196.392,1004.3 197.756,1003.8C199.131,1003.3 200.699,1003.05 202.465,1003.05C204.199,1003.05 205.756,1003.3 207.131,1003.8C208.517,1004.3 209.61,1005.07 210.402,1006.09C211.194,1007.12 211.59,1008.44 211.59,1010.05C211.59,1011.67 211.194,1013.01 210.402,1014.05C209.61,1015.09 208.517,1015.86 207.131,1016.36C205.756,1016.86 204.199,1017.11 202.465,1017.11ZM202.465,1016.32C203.116,1016.32 203.636,1015.87 204.027,1014.97C204.428,1014.05 204.631,1012.41 204.631,1010.05C204.631,1007.71 204.428,1006.09 204.027,1005.2C203.636,1004.29 203.116,1003.84 202.465,1003.84C201.782,1003.84 201.246,1004.29 200.86,1005.2C200.485,1006.09 200.298,1007.71 200.298,1010.05C200.298,1012.41 200.485,1014.05 200.86,1014.97C201.246,1015.87 201.782,1016.32 202.465,1016.32ZM209.485,1006.88L208.548,1006.57C209.017,1005.36 209.746,1004.38 210.735,1003.63C211.72,1002.88 212.803,1002.51 213.985,1002.51C214.954,1002.51 215.678,1002.78 216.152,1003.32C216.636,1003.85 216.881,1004.54 216.881,1005.38C216.881,1006.23 216.652,1006.88 216.194,1007.34C215.746,1007.8 215.215,1008.03 214.59,1008.03C214.058,1008.03 213.574,1007.85 213.131,1007.49C212.699,1007.11 212.449,1006.55 212.381,1005.8C212.324,1005.05 212.595,1004.11 213.194,1002.97L213.444,1003.22C212.36,1003.61 211.527,1004.08 210.944,1004.63C210.371,1005.19 209.886,1005.94 209.485,1006.88Z" style="fill:rgb(19,69,183);fill-rule:nonzero;"/>
        <path d="M257.377,995.279L257.377,996.174C256.502,996.206 255.825,996.315 255.356,996.508C254.882,996.69 254.564,997.039 254.398,997.549C254.241,998.065 254.168,998.872 254.168,999.966L254.168,1021.84C254.168,1022.9 254.252,1023.69 254.418,1024.22C254.595,1024.75 254.918,1025.1 255.377,1025.28C255.835,1025.44 256.502,1025.57 257.377,1025.63L257.377,1026.51C256.528,1026.46 255.429,1026.42 254.085,1026.4C252.752,1026.39 251.398,1026.38 250.023,1026.38C248.523,1026.38 247.111,1026.39 245.793,1026.4C244.486,1026.42 243.424,1026.46 242.606,1026.51L242.606,1025.63C243.606,1025.57 244.361,1025.44 244.877,1025.28C245.387,1025.1 245.731,1024.75 245.898,1024.22C246.075,1023.69 246.168,1022.9 246.168,1021.84L246.168,998.112L246.564,998.07L235.543,1026.51L234.835,1026.51L222.668,998.154L222.668,1018.57C222.668,1020.36 222.752,1021.74 222.918,1022.7C223.095,1023.65 223.491,1024.34 224.106,1024.76C224.731,1025.16 225.71,1025.46 227.043,1025.63L227.043,1026.51C226.47,1026.46 225.72,1026.42 224.793,1026.4C223.877,1026.39 223.007,1026.38 222.189,1026.38C221.533,1026.38 220.861,1026.39 220.168,1026.4C219.486,1026.42 218.908,1026.46 218.439,1026.51L218.439,1025.63C219.366,1025.46 220.064,1025.17 220.523,1024.78C220.981,1024.38 221.278,1023.75 221.418,1022.88C221.569,1022.01 221.648,1020.81 221.648,1019.28L221.648,999.966C221.648,998.872 221.569,998.065 221.418,997.549C221.278,997.039 220.97,996.69 220.502,996.508C220.028,996.315 219.34,996.206 218.439,996.174L218.439,995.279C218.908,995.31 219.486,995.341 220.168,995.383C220.861,995.414 221.533,995.424 222.189,995.424C223.689,995.424 225.127,995.414 226.502,995.383C227.887,995.341 229.137,995.31 230.252,995.279L239.252,1016.28L238.023,1017.51L246.523,995.424L250.023,995.424C251.398,995.424 252.752,995.414 254.085,995.383C255.429,995.341 256.528,995.31 257.377,995.279Z" style="fill:rgb(19,69,183);fill-rule:nonzero;"/>
        <path d="M270.427,1003.05C273.02,1003.05 275.052,1003.82 276.51,1005.34C277.979,1006.87 278.718,1009.38 278.718,1012.88L264.572,1012.88L264.531,1012.05L272.718,1012.05C272.786,1010.61 272.729,1009.27 272.552,1008.05C272.369,1006.83 272.078,1005.85 271.677,1005.11C271.286,1004.38 270.77,1004.01 270.135,1004.01C269.244,1004.01 268.489,1004.64 267.864,1005.9C267.249,1007.17 266.874,1009.32 266.739,1012.34L266.906,1012.65C266.848,1012.99 266.822,1013.32 266.822,1013.65L266.822,1014.74C266.822,1016.77 267.093,1018.38 267.635,1019.59C268.177,1020.79 268.854,1021.63 269.677,1022.13C270.51,1022.63 271.364,1022.88 272.239,1022.88C272.739,1022.88 273.291,1022.82 273.906,1022.67C274.531,1022.52 275.177,1022.21 275.843,1021.74C276.52,1021.27 277.177,1020.58 277.802,1019.67L278.552,1019.95C278.229,1021.09 277.677,1022.21 276.885,1023.32C276.104,1024.42 275.114,1025.33 273.906,1026.05C272.708,1026.77 271.26,1027.13 269.552,1027.13C267.604,1027.13 265.869,1026.73 264.343,1025.92C262.812,1025.11 261.598,1023.82 260.697,1022.07C259.807,1020.32 259.364,1018.04 259.364,1015.22C259.364,1012.42 259.848,1010.13 260.822,1008.34C261.791,1006.55 263.114,1005.23 264.781,1004.36C266.458,1003.49 268.343,1003.05 270.427,1003.05Z" style="fill:rgb(19,69,183);fill-rule:nonzero;"/>
        <path d="M143.093,1037.94C145.452,1037.94 147.312,1038.43 148.676,1039.4C150.051,1040.36 150.739,1041.75 150.739,1043.55C150.739,1044.69 150.437,1045.71 149.843,1046.63C149.26,1047.54 148.489,1048.39 147.53,1049.19C146.572,1049.99 145.551,1050.73 144.468,1051.42C143.385,1052.11 142.322,1052.79 141.28,1053.46C140.249,1054.15 139.374,1054.84 138.655,1055.53L148.385,1055.53C149.593,1055.53 150.353,1055.39 150.676,1055.11C151.01,1054.84 151.228,1054.34 151.343,1053.63L152.322,1053.63C152.322,1055.73 152.333,1057.37 152.364,1058.55C152.39,1059.71 152.431,1060.75 152.489,1061.63C152.223,1061.56 151.739,1061.51 151.03,1061.49C150.333,1061.45 149.53,1061.43 148.614,1061.42C147.697,1061.41 146.801,1061.4 145.926,1061.4L132.26,1061.4L132.26,1060.53C133.077,1059.69 134.077,1058.76 135.26,1057.71C136.452,1056.67 137.635,1055.51 138.801,1054.21C139.968,1052.92 140.947,1051.53 141.739,1050.03C142.53,1048.53 142.926,1046.91 142.926,1045.17C142.926,1043.65 142.583,1042.53 141.905,1041.82C141.223,1041.11 140.223,1040.76 138.905,1040.76C137.64,1040.76 136.53,1041.04 135.572,1041.59C134.624,1042.13 133.77,1042.92 133.01,1043.94L132.26,1043.44C132.895,1042.42 133.687,1041.49 134.635,1040.65C135.577,1039.82 136.739,1039.16 138.114,1038.67C139.499,1038.19 141.161,1037.94 143.093,1037.94Z" style="fill:rgb(19,69,183);fill-rule:nonzero;"/>
        <path d="M169.03,1037.94C171.473,1037.94 173.624,1038.42 175.488,1039.38C177.363,1040.33 178.827,1041.67 179.884,1043.42C180.936,1045.17 181.467,1047.23 181.467,1049.59C181.467,1051.94 180.931,1054.06 179.863,1055.94C178.79,1057.82 177.285,1059.31 175.342,1060.4C173.394,1061.49 171.134,1062.03 168.551,1062.03C166.202,1062.03 164.082,1061.54 162.197,1060.57C160.322,1059.6 158.832,1058.24 157.738,1056.49C156.655,1054.74 156.113,1052.67 156.113,1050.3C156.113,1047.96 156.644,1045.88 157.717,1044.03C158.785,1042.18 160.29,1040.71 162.238,1039.61C164.181,1038.5 166.447,1037.94 169.03,1037.94ZM168.676,1038.74C167.176,1038.74 165.947,1039.75 164.988,1041.76C164.04,1043.77 163.572,1046.57 163.572,1050.15C163.572,1052.81 163.822,1054.95 164.322,1056.59C164.822,1058.21 165.478,1059.4 166.301,1060.13C167.118,1060.87 167.999,1061.24 168.947,1061.24C170.447,1061.24 171.66,1060.21 172.592,1058.17C173.535,1056.12 174.009,1053.3 174.009,1049.71C174.009,1047.06 173.759,1044.94 173.259,1043.34C172.759,1041.75 172.113,1040.58 171.322,1039.84C170.53,1039.11 169.644,1038.74 168.676,1038.74Z" style="fill:rgb(19,69,183);fill-rule:nonzero;"/>
        <path d="M195.931,1037.94C198.29,1037.94 200.15,1038.43 201.514,1039.4C202.889,1040.36 203.577,1041.75 203.577,1043.55C203.577,1044.69 203.275,1045.71 202.681,1046.63C202.098,1047.54 201.327,1048.39 200.369,1049.19C199.41,1049.99 198.389,1050.73 197.306,1051.42C196.223,1052.11 195.16,1052.79 194.119,1053.46C193.087,1054.15 192.212,1054.84 191.494,1055.53L201.223,1055.53C202.431,1055.53 203.191,1055.39 203.514,1055.11C203.848,1054.84 204.066,1054.34 204.181,1053.63L205.16,1053.63C205.16,1055.73 205.171,1057.37 205.202,1058.55C205.228,1059.71 205.27,1060.75 205.327,1061.63C205.061,1061.56 204.577,1061.51 203.869,1061.49C203.171,1061.45 202.369,1061.43 201.452,1061.42C200.535,1061.41 199.639,1061.4 198.764,1061.4L185.098,1061.4L185.098,1060.53C185.915,1059.69 186.915,1058.76 188.098,1057.71C189.29,1056.67 190.473,1055.51 191.639,1054.21C192.806,1052.92 193.785,1051.53 194.577,1050.03C195.369,1048.53 195.764,1046.91 195.764,1045.17C195.764,1043.65 195.421,1042.53 194.744,1041.82C194.061,1041.11 193.061,1040.76 191.744,1040.76C190.478,1040.76 189.369,1041.04 188.41,1041.59C187.462,1042.13 186.608,1042.92 185.848,1043.94L185.098,1043.44C185.733,1042.42 186.525,1041.49 187.473,1040.65C188.415,1039.82 189.577,1039.16 190.952,1038.67C192.337,1038.19 193.999,1037.94 195.931,1037.94Z" style="fill:rgb(19,69,183);fill-rule:nonzero;"/>
        <path d="M227.555,1029.51L227.743,1030.4C226.644,1030.75 225.561,1031.18 224.493,1031.69C223.42,1032.21 222.399,1032.9 221.43,1033.78C220.456,1034.64 219.602,1035.77 218.868,1037.15C218.128,1038.53 217.555,1040.25 217.139,1042.32C216.733,1044.38 216.535,1046.87 216.535,1049.8C216.535,1052.66 216.722,1054.92 217.097,1056.59C217.483,1058.25 217.972,1059.42 218.555,1060.11C219.149,1060.79 219.743,1061.13 220.326,1061.13C220.951,1061.13 221.524,1060.83 222.055,1060.21C222.581,1059.59 223.014,1058.6 223.347,1057.24C223.68,1055.88 223.847,1054.09 223.847,1051.88C223.847,1049.76 223.691,1048.06 223.389,1046.8C223.081,1045.54 222.67,1044.63 222.16,1044.07C221.644,1043.52 221.061,1043.24 220.41,1043.24C219.977,1043.24 219.472,1043.38 218.889,1043.67C218.316,1043.96 217.79,1044.44 217.305,1045.09C216.816,1045.73 216.472,1046.61 216.264,1047.74L215.826,1047.42C216.035,1046.08 216.456,1045.01 217.097,1044.21C217.748,1043.41 218.54,1042.84 219.472,1042.49C220.399,1042.13 221.378,1041.94 222.41,1041.94C224.045,1041.94 225.535,1042.33 226.868,1043.09C228.212,1043.86 229.29,1044.95 230.097,1046.38C230.899,1047.81 231.305,1049.52 231.305,1051.49C231.305,1053.75 230.774,1055.67 229.722,1057.24C228.665,1058.81 227.269,1060 225.535,1060.82C223.795,1061.62 221.899,1062.03 219.847,1062.03C216.483,1062.03 213.847,1060.93 211.93,1058.74C210.024,1056.54 209.076,1053.44 209.076,1049.44C209.076,1046.81 209.472,1044.46 210.264,1042.4C211.066,1040.34 212.128,1038.54 213.451,1037.03C214.769,1035.52 216.233,1034.25 217.847,1033.21C219.472,1032.19 221.123,1031.38 222.805,1030.78C224.498,1030.17 226.081,1029.75 227.555,1029.51Z" style="fill:rgb(19,69,183);fill-rule:nonzero;"/>
    </g>
</svg>
