<?xml version="1.0" encoding="UTF-8" standalone="no"?>
<!DOCTYPE svg PUBLIC "-//W3C//DTD SVG 1.1//EN" "http://www.w3.org/Graphics/SVG/1.1/DTD/svg11.dtd">
<svg width="100%" height="100%" viewBox="0 0 1601 2151" version="1.1" xmlns="http://www.w3.org/2000/svg" xmlns:xlink="http://www.w3.org/1999/xlink" xml:space="preserve" xmlns:serif="http://www.serif.com/" style="fill-rule:evenodd;clip-rule:evenodd;stroke-linejoin:round;stroke-miterlimit:2;">
    <g transform="matrix(1,0,0,1,0.355669,0.689806)">
        <path d="M192,665L343,665C357.015,739.72 357.015,739.72 360.988,761.098L361.413,763.383C367.59,796.661 373.653,829.96 379.603,863.28L381.721,875.109C382.837,881.336 383.949,887.564 385.057,893.792C385.458,896.045 385.861,898.299 386.264,900.552C388.384,912.406 390.405,924.273 392.27,936.171L392.798,939.487L393.277,942.597L393.701,945.325C394.022,948.2 394,951.107 394,954L458,953L464.5,927.375C471.715,899.228 479.755,871.391 488.214,843.592C489.486,839.398 490.744,835.199 492,831L494,831C506.53,859.072 515.415,887.685 523.358,917.344C524.755,922.554 526.208,927.727 527.841,932.867C532.831,949.037 533.977,963.968 533.743,980.824C533.701,984.411 533.701,987.998 533.696,991.584C533.679,998.467 533.626,1005.35 533.561,1012.23C533.484,1020.35 533.458,1028.47 533.43,1036.59C533.158,1093.73 532.51,1150.87 532,1208L1123,1208L1123,951C1127.51,946.487 1131.76,942.286 1136.54,938.172C1139.88,935.221 1143.12,932.172 1146.38,929.125C1151.35,924.46 1156.36,919.839 1161.45,915.301C1163.44,913.505 1165.41,911.689 1167.36,909.855L1169.12,908.204C1170.27,907.134 1171.4,906.061 1172.54,904.984C1174.68,902.977 1176.6,901.194 1179.26,899.902L1181,899C1181.71,897.691 1182.38,896.357 1183,895C1184.47,893.04 1185.98,891.106 1187.5,889.188C1193.08,882.051 1198.12,874.63 1203,867L1205.14,863.664C1238.49,810.362 1254.88,748.868 1268,688L1273,665L1414,665C1423.19,692.559 1423.19,692.559 1426,704.438C1426.33,705.778 1426.65,707.118 1426.98,708.459C1428,712.637 1429.01,716.817 1430,721L1430.51,723.127L1431.02,725.262C1445.88,787.6 1467.76,846.327 1508,897L1510.24,899.828C1518.17,909.684 1526.23,918.966 1536.21,926.801C1539.08,929.065 1541.85,931.43 1544.62,933.812C1550.33,938.598 1556.33,942.865 1562.48,947.066L1564.61,948.531L1566.52,949.831C1568,951 1568,951 1569,953C1569.16,955.61 1569.26,958.195 1569.31,960.808L1569.38,963.385C1569.44,966.365 1569.5,969.345 1569.56,972.325L1569.62,975.599C1570.36,1015.08 1570.13,1054.57 1570.1,1094.05C1570.1,1106.14 1570.09,1118.24 1570.09,1130.33C1570.09,1151.88 1570.09,1173.43 1570.08,1194.98C1570.07,1215.88 1570.06,1236.77 1570.06,1257.67L1570.06,1261.59L1570.05,1281.09C1570.04,1334.72 1570.02,1388.36 1570,1442L1564.28,1441.05L1561.07,1440.52C1557.09,1439.85 1553.14,1439.07 1549.19,1438.27L1541.75,1436.77C1456.6,1419.81 1368.27,1411.33 1220.51,1445.09C1218.67,1445.72 1216.84,1446.36 1215,1447L1212.3,1447.93C1179.95,1459.08 1149.06,1473.61 1118.35,1488.58C1106.56,1494.33 1094.61,1499.67 1082.57,1504.88C1077.34,1507.16 1072.16,1509.57 1067,1512L1065.05,1509.5C1058.29,1500.85 1051.41,1492.3 1044.47,1483.8C1043.19,1482.23 1041.91,1480.65 1040.63,1479.07C1031.64,1467.97 1022.24,1457.24 1012.53,1446.75C1010.23,1444.24 1007.94,1441.69 1005.69,1439.12C1001.33,1434.25 996.717,1429.66 992.048,1425.09C988.616,1421.7 985.432,1418.21 982.328,1414.53C980.76,1412.72 979.084,1411.16 977.25,1409.62C974.237,1407.07 971.327,1404.44 968.438,1401.75C940.096,1376.45 902.328,1362.36 865.524,1354.64C817.93,1345.09 767.856,1344.19 721.346,1359.36C682.712,1372.65 648.366,1392.72 619,1421L616.594,1423.28C601.028,1438.35 588.768,1457.32 578,1476L576.39,1478.77C552.46,1520.33 545.956,1566.16 543.547,1613.41L543.327,1617.41C543.196,1619.9 543.086,1622.4 542.997,1624.89L542.82,1628.27L542.704,1631.2C542,1634 542,1634 539.947,1637.3C537,1640 537,1640 533.39,1640.8C531.937,1640.85 530.482,1640.87 529.027,1640.86L526.552,1640.92C523.701,1640.98 520.852,1640.99 518,1641C515.771,1641.03 513.542,1641.06 511.313,1641.09C503.729,1641.18 496.147,1641.19 488.563,1641.19L486.522,1641.19C465.368,1641.18 444.29,1640.92 423.198,1639.18C420.881,1638.99 418.564,1638.81 416.247,1638.62C375.915,1635.4 335.677,1629.93 296,1622L293.6,1621.52C207.63,1604.47 123.704,1578.94 18.188,1533.38L14.918,1531.91L11.918,1530.52L9.318,1529.33C6.541,1527.74 4.968,1526.57 3,1524C2.335,1521.02 2.314,1518.06 2.268,1515.02L2.182,1512.23C2.101,1509.15 2.04,1506.08 2,1503L1.946,1499.83C1.812,1491.45 1.762,1483.08 1.719,1474.69L1.664,1466.21C1.619,1459.28 1.578,1452.36 1.541,1445.43C1.508,1439.7 1.475,1433.96 1.441,1428.23L1.425,1425.71L1.395,1420.63C1.291,1403.32 1.192,1386.01 1.098,1368.7C1.026,1355.63 0.952,1342.55 0.877,1329.47C0.569,1275.9 0.294,1222.32 0.071,1168.75C0.034,1159.78 -0.006,1150.82 -0.047,1141.85C-0.667,1009.25 -0.667,1009.25 3,959L3.15,956.618C3.635,950.728 5.306,945.628 7.402,940.125L8.462,937.269C9.611,934.176 10.774,931.089 11.938,928C12.745,925.833 13.552,923.665 14.358,921.496C16.043,916.968 17.731,912.441 19.423,907.915C23.189,897.826 26.887,887.713 30.591,877.602C35.678,863.716 40.78,849.837 46,836L48,836C55.694,859.913 62.621,884.009 69.349,908.21C70.9,913.786 72.459,919.361 74.017,924.937C76.351,933.29 78.674,941.645 81,950L144,951L146,934C146.795,928.73 147.616,923.468 148.483,918.209L149.214,913.719C149.871,909.687 150.531,905.656 151.194,901.625C151.903,897.3 152.611,892.976 153.316,888.651C154.514,881.324 155.714,873.998 156.917,866.671C158.122,859.339 159.322,852.006 160.518,844.672C166.914,805.478 173.396,766.299 180.127,727.16C180.57,724.574 181.013,721.988 181.455,719.401C182.151,715.332 182.852,711.264 183.557,707.197C183.81,705.732 184.062,704.267 184.312,702.801C186.482,690.094 189.256,677.621 192,665" style="fill:rgb(248,249,250);fill-rule:nonzero;"/>
        <path d="M1403.31,1513.81L1406.6,1513.81C1425.46,1513.84 1444.2,1514.36 1463,1516L1465.21,1516.19C1501.55,1519.38 1537.5,1524.92 1573.23,1532.23C1576.6,1532.92 1579.98,1533.59 1583.36,1534.26C1585.09,1534.61 1586.83,1534.96 1588.56,1535.31L1590.82,1535.76C1594.11,1536.44 1596.16,1537.1 1599,1539C1600.24,1543.76 1600.18,1548.61 1600.19,1553.5L1600.23,1555.66C1600.26,1567.93 1597.68,1579.15 1593.5,1590.62L1592.15,1594.42C1591.23,1597.02 1590.3,1599.61 1589.36,1602.21C1588.09,1605.76 1586.84,1609.31 1585.61,1612.88C1569.53,1659.07 1549.92,1703.99 1525.49,1746.4C1522.91,1750.89 1520.4,1755.42 1517.89,1759.95C1515.76,1763.76 1513.43,1767.38 1511,1771C1490.38,1767.37 1469.92,1763.56 1449.75,1757.88C1426.5,1751.34 1403.06,1746.44 1379,1744L1376.02,1743.69C1355.04,1741.58 1334.06,1741.69 1313,1742L1309.69,1742.04C1220.53,1743.55 1132.33,1771.79 1056,1817C1054.84,1817.68 1053.69,1818.36 1052.53,1819.04C1020,1838.16 988.84,1859.27 958,1881L955.755,1882.58C953.607,1884.1 951.46,1885.61 949.313,1887.12L947.213,1888.61C943.77,1891.04 940.334,1893.48 936.903,1895.92C902.867,1920.16 867.301,1941.18 830,1960C829.05,1960.48 828.1,1960.96 827.122,1961.46C751.672,1999.32 668.046,2021.86 562,2039L558.976,2039.45C501.661,2047.87 441.746,2049.86 385,2037L382.74,2036.5C338.638,2026.12 294.877,1990.85 261,1962L259.456,1960.7C249.448,1952.29 240.054,1943.37 230.836,1934.1C228.612,1931.87 226.381,1929.64 224.145,1927.42C217.343,1920.62 210.721,1913.85 204.799,1906.27C202.887,1903.86 200.851,1901.62 198.75,1899.38C192.9,1892.95 187.773,1885.98 182.552,1879.05C181.171,1877.23 179.776,1875.41 178.367,1873.61C172.182,1865.69 166.361,1857.54 160.609,1849.3C158.975,1846.97 157.334,1844.64 155.687,1842.31C112.219,1780.75 72.151,1715.79 37.125,1649.06L35.554,1646.08L34.133,1643.35L32.879,1640.94C32,1639 32,1639 32,1637C43.779,1639.68 55.434,1642.67 67.063,1645.94L69.711,1646.68C88.393,1651.9 107.009,1657.36 125.628,1662.81C166.231,1674.7 166.231,1674.7 207,1686L210.002,1686.81C299.326,1710.85 390.049,1728.73 482.375,1735.75L484.731,1735.93C509.93,1737.82 535.117,1738.24 560.375,1738.25L562.825,1738.25C591.644,1738.27 620.271,1737.41 649,1735L654.195,1734.58C692.717,1731.4 731.137,1725.75 769,1718L773.195,1717.15C815.168,1708.67 856.297,1697.26 897,1684L899.237,1683.27C935.03,1671.64 969.883,1656.33 1002.73,1637.92C1008.56,1634.66 1014.5,1631.62 1020.44,1628.56C1028.44,1624.44 1036.32,1620.17 1044.12,1615.69C1056.48,1608.6 1069.14,1602.14 1081.83,1595.66C1085.76,1593.65 1089.66,1591.58 1093.53,1589.45C1169.04,1548.12 1255.41,1525.46 1403.31,1513.81M836,2L839.41,2.473C897.084,10.745 951.067,33.008 997,69C1001.44,72.546 1005.75,76.23 1010,80L1012.9,82.563C1025.11,93.565 1036.88,105.022 1047,118C1047.9,119.092 1048.81,120.182 1049.71,121.27C1081.22,159.271 1105.33,207.619 1114.22,256.324C1114.49,257.882 1114.75,259.441 1115,261L1118.93,261.297C1177.24,265.975 1232.68,284.8 1281,318L1283.04,319.4C1293.87,326.859 1303.97,335.042 1313.68,343.902C1315.68,345.697 1317.7,347.46 1319.75,349.188C1328.83,357.128 1337.34,365.784 1344.81,375.258C1346.75,377.692 1348.77,380.036 1350.83,382.374C1385.67,422.348 1407.42,473.808 1417.94,525.379C1421.38,543.079 1423.17,560.779 1423.25,578.812L1423.31,582.334C1423.34,588.974 1422.93,594.006 1420,600C1417.11,604.485 1413.62,607.955 1408.88,610.438C1403.58,612.743 1398.78,613.466 1393,613C1388.07,611.633 1383.5,609.913 1379.12,607.25C1374.25,602.086 1371.74,596.875 1370,590C1369.78,587.723 1369.62,585.439 1369.54,583.152L1369.37,579.176L1369.28,577.084C1367.23,530.251 1354.15,484.33 1329.21,444.403C1320.47,430.79 1310.81,418.029 1300,406L1298.52,404.333C1287.13,391.532 1274.73,380.248 1261,370L1259.06,368.547C1217.93,337.932 1171.2,322.511 1121,315L1121.05,317.294C1121.54,345.062 1119.25,371.871 1113,399L1112.37,401.83C1103.7,439.826 1087.2,476.035 1065,508L1063.86,509.658C1058.53,517.401 1052.78,524.841 1046.62,531.941C1044.32,534.601 1042.16,537.349 1040,540.125C1029.77,552.679 1017.77,564.072 1005,574C1003.12,575.601 1001.25,577.206 999.375,578.813C958.192,613.096 906.092,635.779 853.57,645.183C794.366,655.182 734.772,649.268 678.513,628.362C669.118,624.72 660.028,620.463 651,616L648.48,614.767C630.207,605.752 612.793,594.89 597,582L594.195,579.773C588.245,575.003 582.597,569.969 577.02,564.773C574.768,562.68 572.458,560.67 570.125,558.668C565.897,554.981 562.019,551.031 558.188,546.938L556.083,544.694C550.437,538.605 545.238,532.273 540.247,525.641C539.014,524.026 537.763,522.425 536.492,520.84C503.43,479.212 482.265,426.487 474.265,374.208C471.403,354.406 470.715,335.004 471,315C423.701,321.73 378.241,334.544 339,363L337.046,364.405C317.016,378.884 298.066,395.297 283,415L280.594,418.031C251.029,455.434 232.108,500.284 225.206,547.412C224.358,553.839 223.812,560.249 223.457,566.719L223.333,568.963C223.138,572.59 222.979,576.218 222.858,579.848C222.57,587.257 221.952,593.58 218,600C215.11,604.172 212.368,607.043 207.813,609.375C201.777,612.113 196.58,612.479 190,612C185.107,611.061 181.578,608.887 177.75,605.75C174.218,602.467 172.054,599.355 170,595C162.778,571.488 170.995,537.669 176.218,514.305C187.686,465.821 208.986,420.221 240.667,381.625C241.536,380.566 242.399,379.502 243.255,378.433C250.297,369.653 258.133,361.658 266.063,353.688L267.598,352.136C274.392,345.288 281.405,338.97 289,333L291.133,331.294C307.595,318.166 325.301,306.68 344,297L346.767,295.567C385.361,275.817 426.222,265.354 469.195,261.325C471.84,261.019 474.399,260.563 477,260L477.5,257.842C487.166,216.57 502.33,176.778 527,142C527.842,140.79 528.683,139.579 529.523,138.367C534.677,130.99 540.176,123.86 546,117L547.368,115.358C558.875,101.561 571.259,88.054 585.461,76.984C588.222,74.826 590.849,72.543 593.5,70.25C605.364,60.346 618.608,51.684 632,44L634.469,42.58C672.084,21.134 713.012,7.435 756,2L758.36,1.688C783.701,-1.537 810.697,-1.528 836,2M650,95C640.194,101.396 630.907,108.403 622,116C620.88,116.934 619.76,117.867 618.64,118.8C607.894,127.809 597.924,137.234 589.2,148.246C586.932,151.085 584.564,153.816 582.187,156.562C561.964,180.881 547.484,209.992 537.437,239.812L536.777,241.758C534.379,248.862 532.462,255.502 532,263L534.617,263.44C595.804,273.837 651.597,295.473 700,335L701.612,336.296C709.988,343.055 717.685,350.479 725.312,358.063L728.098,360.82C734.157,366.907 739.662,373.276 745,380C745.905,381.1 746.812,382.198 747.723,383.293C765.948,405.839 779.765,430.638 791.922,456.833C793.044,459.203 793.044,459.203 795,462L796.11,459.527C811.353,426.171 830.243,395.171 855,368L856.865,365.948C864.23,357.883 871.673,350.085 880,343L882.832,340.508C925.142,303.561 976.799,278.89 1031.71,267.633C1041.1,265.824 1050.54,264.366 1060,263C1059.43,256.146 1058.08,249.941 1056.06,243.375L1055.13,240.358C1040.78,195.274 1013.24,155.303 979,123C975.432,119.867 971.742,116.922 968,114L966.165,112.54C929.224,83.153 885.694,63.505 839,56C773.118,46.389 706.483,59.47 650,95M524,316C523.28,354.739 529.663,391.952 544,428L544.928,430.337C556.594,459.165 574.265,485.676 595.504,508.317C597.619,510.6 599.681,512.932 601.687,515.312C604.502,518.553 607.532,521.346 610.809,524.113C612.333,525.428 613.826,526.78 615.285,528.168C646.713,557.944 688.335,578.309 730,589C742.267,591.895 754.413,594.18 767,595C764.804,540.444 754.906,488.724 725.395,441.766C709.057,416.58 688.792,392.476 665,374L661.953,371.578C625.136,342.509 581.086,323.68 534.777,316.445C531.143,316.017 527.655,315.915 524,316M1066,315C1061.45,315.413 1056.94,316.242 1052.44,317L1050.4,317.34C1003.24,325.316 959.59,345.252 922.654,375.603C918.864,378.804 915.234,382.178 911.617,385.57C909.519,387.518 907.397,389.37 905.187,391.188C902.114,393.788 899.54,396.683 896.937,399.75C894.75,402.29 892.471,404.733 890.187,407.188C860.657,439.666 840.029,481.388 830.277,524.004C826.459,541.579 824.487,558.988 823.595,576.922L823.491,578.992C823.402,580.852 823.316,582.712 823.234,584.572C822.994,588.086 822.54,591.522 822,595C856.975,594.88 893.477,581.124 924,565L926.352,563.774C945.384,553.776 962.844,540.874 978.566,526.246C980.604,524.366 982.681,522.584 984.812,520.813C995.837,511.189 1005.3,499.72 1014,488L1015.44,486.073C1044.36,447.224 1061.17,401.456 1066.98,353.543C1068.36,341.056 1068.2,328.545 1068,316L1066,315Z" style="fill:rgb(248,249,250);fill-rule:nonzero;"/>
        <path d="M1443,1843C1443.84,1848.39 1444.35,1853.66 1443,1859C1440.15,1864.41 1435.81,1868.81 1431.64,1873.23C1429.47,1875.57 1427.52,1878.05 1425.56,1880.56C1420.75,1886.44 1415.54,1891.93 1410.33,1897.45C1407.73,1900.21 1405.18,1903.02 1402.69,1905.88C1398.43,1910.64 1393.94,1915.16 1389.44,1919.69L1387.29,1921.85C1383.28,1925.85 1379.13,1929.7 1374.85,1933.4C1372.24,1935.66 1369.72,1938.02 1367.19,1940.38C1361.64,1945.49 1355.88,1950.27 1350,1955C1348.82,1955.97 1347.64,1956.95 1346.46,1957.92C1296.71,1998.92 1241.07,2032.57 1183.26,2060.88C1180.75,2062.12 1178.26,2063.4 1175.77,2064.68C1096.75,2104.53 1007.25,2130.28 876,2147L872.055,2147.32C831.268,2150.5 789.767,2150.45 749,2147L746.688,2146.81C697.794,2142.74 646.554,2136.24 600,2120L600,2115C605.775,2113.66 611.589,2112.5 617.434,2111.52L622.284,2110.69L624.828,2110.26C705.538,2096.46 784.21,2073.95 858,2038L860.022,2037.02C878.692,2027.93 897.088,2018.52 915,2008L918.235,2006.11C939.317,1993.82 960.025,1981.03 980,1967L984.094,1964.14C994.863,1956.61 1005.44,1948.83 1016,1941C1086.71,1888.58 1160.08,1851.44 1250,1833L1252.65,1832.44C1314.32,1819.63 1382.34,1829.77 1443,1843" style="fill:rgb(248,249,250);fill-rule:nonzero;"/>
    </g>
</svg>
