<svg xmlns="http://www.w3.org/2000/svg" xmlns:xlink="http://www.w3.org/1999/xlink" width="597" zoomAndPan="magnify" viewBox="0 0 447.75 416.99999" height="556" preserveAspectRatio="xMidYMid meet" version="1.0"><defs><g/><clipPath id="c9771d8cfa"><path d="M 178 0.117188 L 265 0.117188 L 265 87 L 178 87 Z M 178 0.117188 " clip-rule="nonzero"/></clipPath><clipPath id="eac6065584"><rect x="0" width="413" y="0" height="114"/></clipPath></defs><path fill="#1345b7" d="M 141.757812 88.273438 L 161.671875 88.273438 C 163.183594 96.472656 168.515625 124.796875 168.515625 126.597656 L 177.027344 126.539062 L 177.527344 124.628906 C 178.609375 119.726562 180.140625 114.933594 181.585938 110.125 C 184.132812 115.191406 185.527344 121.925781 186.964844 126.945312 L 186.726562 160.261719 L 265.089844 160.261719 L 265.089844 126.199219 L 272.796875 119.125 C 280.136719 110.164062 282.746094 99.390625 285 88.273438 L 303.628906 88.273438 C 304.488281 90.851562 305.164062 93.203125 305.710938 95.832031 C 307.640625 104.984375 310.996094 113.226562 317.117188 120.410156 C 320.003906 123.714844 324.097656 126.25 324.097656 126.25 C 324.097656 126.25 324.273438 132.554688 324.269531 135.296875 C 324.269531 135.296875 324.417969 189.597656 324.34375 191.273438 L 322.460938 190.875 C 309.195312 188.066406 295 186.625 281.792969 190.472656 L 279.546875 191.085938 C 273.800781 192.832031 268.507812 195.316406 263.140625 197.988281 C 263.140625 197.988281 259.425781 199.585938 257.710938 200.503906 C 256.695312 199.136719 247.222656 186.929688 241.324219 183.398438 C 234.210938 179.652344 227.902344 178.527344 219.976562 178.703125 C 213.523438 179.011719 208.035156 181.355469 202.597656 184.753906 C 197.3125 188.445312 193.894531 193.203125 191.089844 198.949219 C 188.828125 204.09375 188.421875 209.683594 188.144531 215.222656 L 188.007812 216.824219 L 187.367188 217.464844 C 164.566406 218.886719 137.96875 212.390625 117.351562 202.679688 L 116.707031 202.039062 C 116.644531 201.085938 116.613281 200.128906 116.609375 199.171875 L 116.589844 197.285156 L 116.574219 195.207031 L 116.558594 193.027344 C 116.539062 190.632812 116.523438 188.234375 116.511719 185.839844 L 116.496094 183.351562 C 116.476562 179.894531 116.464844 176.441406 116.457031 172.984375 C 116.441406 168.058594 116.414062 163.136719 116.375 158.210938 C 116.335938 154.308594 116.324219 150.414062 116.320312 146.519531 C 116.3125 144.871094 116.300781 143.226562 116.28125 141.582031 C 116.222656 136.179688 116.789062 126.320312 116.789062 126.320312 L 122.488281 110.769531 C 123.046875 112.257812 123.046875 112.257812 123.597656 114.207031 L 124.203125 116.308594 L 124.816406 118.523438 L 125.449219 120.742188 C 125.96875 122.558594 126.476562 124.378906 126.984375 126.199219 L 135.339844 126.199219 L 135.855469 122.921875 C 136.425781 119.355469 141.117188 90.203125 141.757812 88.273438 " fill-opacity="1" fill-rule="nonzero"/><path fill="#b7261f" d="M 328.039062 203.96875 C 328.417969 205.058594 328.359375 208.023438 327.800781 209.660156 L 325.765625 215.445312 C 323.304688 222.25 320.261719 228.648438 316.476562 234.820312 C 310.773438 233.746094 310.773438 233.746094 308.382812 233.042969 C 297.6875 229.898438 286.152344 230.484375 275.367188 232.890625 C 261.949219 236.246094 251.179688 243.625 240.078125 251.601562 C 228.652344 259.796875 215.832031 265.164062 202.140625 268.242188 L 200.742188 268.558594 C 190.410156 270.785156 175.96875 272.777344 165.632812 269.613281 C 162.535156 268.164062 151.796875 263.140625 142.011719 251.074219 C 132.222656 239.007812 120.710938 218.113281 120.464844 217.074219 C 124.332031 218.101562 129.5625 219.578125 133.394531 220.734375 C 143.804688 223.863281 154.140625 226.632812 164.886719 228.390625 L 166.761719 228.707031 C 189.332031 232.367188 211.863281 230.945312 233.613281 223.894531 L 234.902344 223.496094 C 242.910156 221.027344 250.117188 216.824219 257.429688 212.808594 C 280.828125 200.011719 302.226562 198.085938 328.039062 203.96875 " fill-opacity="1" fill-rule="nonzero"/><path fill="#1345b7" d="M 289.535156 242.433594 C 295.703125 242.261719 301.464844 243.234375 307.484375 244.460938 L 307.484375 246.386719 C 297.96875 259.203125 282.78125 269.105469 268.339844 275.453125 C 261.433594 278.371094 254.410156 280.734375 247.105469 282.382812 L 245.714844 282.703125 C 229.792969 286.160156 211.289062 285.695312 195.71875 281.097656 L 195.71875 280.457031 L 196.96875 280.269531 C 218.441406 277.042969 235.296875 269.480469 252.449219 256.328125 C 262.070312 249.046875 272.789062 244.367188 284.761719 242.691406 C 286.347656 242.574219 287.941406 242.515625 289.535156 242.433594 " fill-opacity="1" fill-rule="nonzero"/><g clip-path="url(#c9771d8cfa)"><path stroke-linecap="round" transform="matrix(1.535603, 0, 0, 1.535218, -664.823114, -777.342546)" fill="none" stroke-linejoin="round" d="M 603.108727 534.463734 C 603.108727 535.308484 603.068026 536.148145 602.984081 536.987806 C 602.90268 537.827466 602.778034 538.662039 602.612688 539.488977 C 602.449886 540.315916 602.243839 541.132677 601.999635 541.941805 C 601.755431 542.748388 601.470527 543.542249 601.147466 544.320844 C 600.824405 545.099439 600.46573 545.862767 600.066356 546.60574 C 599.669524 547.348712 599.23708 548.071329 598.769023 548.773591 C 598.298422 549.475853 597.797296 550.152671 597.2631 550.804044 C 596.726361 551.455417 596.16164 552.081346 595.563849 552.676742 C 594.968603 553.272138 594.345374 553.839545 593.691621 554.373875 C 593.040411 554.910749 592.363763 555.412001 591.661677 555.880176 C 590.959591 556.34835 590.237155 556.780903 589.494369 557.180378 C 588.749039 557.577309 587.988446 557.938617 587.207503 558.259215 C 586.429103 558.582357 585.635441 558.867333 584.82906 559.111598 C 584.022679 559.355863 583.203579 559.561962 582.376848 559.724805 C 581.550116 559.890193 580.715754 560.01487 579.876303 560.096291 C 579.036853 560.180257 578.194859 560.220968 577.352865 560.220968 C 576.508327 560.220968 575.666333 560.180257 574.826882 560.096291 C 573.987432 560.01487 573.153069 559.890193 572.326338 559.724805 C 571.499607 559.561962 570.68305 559.355863 569.874125 559.111598 C 569.067744 558.867333 568.274082 558.582357 567.495683 558.259215 C 566.71474 557.938617 565.954147 557.577309 565.208817 557.180378 C 564.46603 556.780903 563.743594 556.34835 563.041509 555.880176 C 562.341967 555.412001 561.662775 554.910749 561.011565 554.373875 C 560.360355 553.839545 559.734583 553.274683 559.139336 552.676742 C 558.541546 552.081346 557.976825 551.455417 557.442629 550.804044 C 556.90589 550.152671 556.404763 549.475853 555.936706 548.773591 C 555.466105 548.071329 555.033661 547.348712 554.63683 546.60574 C 554.237455 545.862767 553.878781 545.099439 553.55572 544.320844 C 553.232659 543.542249 552.947754 542.748388 552.703551 541.941805 C 552.459347 541.132677 552.2533 540.315916 552.090498 539.488977 C 551.925151 538.662039 551.800506 537.827466 551.719104 536.987806 C 551.635159 536.148145 551.594459 535.308484 551.594459 534.463734 C 551.594459 533.621529 551.635159 532.779323 551.719104 531.939662 C 551.800506 531.100002 551.925151 530.26543 552.090498 529.438491 C 552.2533 528.611552 552.459347 527.794791 552.703551 526.988208 C 552.947754 526.17908 553.232659 525.387763 553.55572 524.606624 C 553.878781 523.828029 554.237455 523.067246 554.63683 522.321729 C 555.033661 521.578756 555.466105 520.856139 555.936706 520.153877 C 556.404763 519.451615 556.90589 518.774797 557.442629 518.123424 C 557.976825 517.472051 558.541546 516.848666 559.139336 516.250726 C 559.734583 515.65533 560.360355 515.087923 561.011565 514.553593 C 561.662775 514.019263 562.341967 513.515467 563.041509 513.047292 C 563.743594 512.579118 564.46603 512.146565 565.21136 511.74709 C 565.954147 511.350159 566.71474 510.991395 567.495683 510.668253 C 568.274082 510.345111 569.067744 510.060135 569.874125 509.81587 C 570.68305 509.571605 571.499607 509.365506 572.326338 509.202663 C 573.153069 509.037275 573.987432 508.912598 574.826882 508.831177 C 575.666333 508.747211 576.508327 508.7065 577.352865 508.7065 C 578.194859 508.7065 579.036853 508.747211 579.876303 508.831177 C 580.715754 508.912598 581.550116 509.037275 582.376848 509.202663 C 583.203579 509.365506 584.022679 509.571605 584.82906 509.81587 C 585.635441 510.060135 586.429103 510.345111 587.207503 510.668253 C 587.988446 510.991395 588.749039 511.350159 589.494369 511.749634 C 590.237155 512.146565 590.959591 512.579118 591.661677 513.047292 C 592.363763 513.515467 593.040411 514.019263 593.691621 514.553593 C 594.345374 515.087923 594.968603 515.65533 595.563849 516.250726 C 596.16164 516.848666 596.726361 517.472051 597.2631 518.123424 C 597.797296 518.774797 598.298422 519.451615 598.769023 520.153877 C 599.23708 520.856139 599.669524 521.578756 600.066356 522.321729 C 600.46573 523.067246 600.824405 523.828029 601.147466 524.606624 C 601.470527 525.387763 601.755431 526.17908 601.999635 526.988208 C 602.243839 527.794791 602.449886 528.611552 602.612688 529.438491 C 602.778034 530.26543 602.90268 531.100002 602.984081 531.939662 C 603.068026 532.779323 603.108727 533.621529 603.108727 534.463734 Z M 603.108727 534.463734 " stroke="#e8b230" stroke-width="4.59" stroke-opacity="1" stroke-miterlimit="1.5"/></g><path stroke-linecap="round" transform="matrix(0.0000830425, -1.535218, 1.535603, 0.0000830216, -639.043125, 964.064431)" fill="none" stroke-linejoin="round" d="M 577.351614 508.706303 C 591.567328 508.708078 603.109472 520.248624 603.110241 534.463316 C 603.108466 548.680552 591.567569 560.222346 577.351856 560.223115 " stroke="#e8b230" stroke-width="4.59" stroke-opacity="1" stroke-miterlimit="1.5"/><path stroke-linecap="round" transform="matrix(0.0000830425, -1.535218, 1.535603, 0.0000830216, -559.32683, 964.064431)" fill="none" stroke-linejoin="round" d="M 577.351614 508.707902 C 591.567328 508.707133 603.109473 520.250223 603.110241 534.464915 C 603.108466 548.679607 591.519237 560.445257 577.300979 560.446026 " stroke="#e8b230" stroke-width="4.59" stroke-opacity="1" stroke-miterlimit="1.5"/><g transform="matrix(1, 0, 0, 1, 17, 294)"><g clip-path="url(#eac6065584)"><g fill="#1345b7" fill-opacity="1"><g transform="translate(0.785856, 62.932602)"><g><path d="M 34.0625 -41.078125 C 33.90625 -39.140625 33.796875 -37.269531 33.734375 -35.46875 C 33.679688 -33.675781 33.65625 -32.296875 33.65625 -31.328125 C 33.65625 -30.515625 33.671875 -29.738281 33.703125 -29 C 33.742188 -28.269531 33.785156 -27.65625 33.828125 -27.15625 L 32.484375 -27.15625 C 32.023438 -30.363281 31.253906 -32.882812 30.171875 -34.71875 C 29.085938 -36.5625 27.816406 -37.859375 26.359375 -38.609375 C 24.910156 -39.359375 23.394531 -39.734375 21.8125 -39.734375 L 21.0625 -39.734375 C 20.050781 -39.734375 19.296875 -39.644531 18.796875 -39.46875 C 18.296875 -39.300781 17.957031 -38.960938 17.78125 -38.453125 C 17.601562 -37.953125 17.515625 -37.160156 17.515625 -36.078125 L 17.515625 -4.984375 C 17.515625 -3.941406 17.601562 -3.160156 17.78125 -2.640625 C 17.957031 -2.117188 18.296875 -1.769531 18.796875 -1.59375 C 19.296875 -1.414062 20.050781 -1.328125 21.0625 -1.328125 L 22.96875 -1.328125 C 24.25 -1.328125 25.59375 -1.742188 27 -2.578125 C 28.414062 -3.410156 29.722656 -4.832031 30.921875 -6.84375 C 32.117188 -8.851562 33.03125 -11.597656 33.65625 -15.078125 L 34.984375 -15.078125 C 34.867188 -13.691406 34.8125 -11.914062 34.8125 -9.75 C 34.8125 -8.78125 34.828125 -7.394531 34.859375 -5.59375 C 34.898438 -3.800781 35.019531 -1.9375 35.21875 0 C 33.238281 -0.0703125 31.007812 -0.117188 28.53125 -0.140625 C 26.0625 -0.160156 23.863281 -0.171875 21.9375 -0.171875 C 20.882812 -0.171875 19.554688 -0.171875 17.953125 -0.171875 C 16.347656 -0.171875 14.609375 -0.160156 12.734375 -0.140625 C 10.859375 -0.117188 8.960938 -0.0976562 7.046875 -0.078125 C 5.128906 -0.0664062 3.320312 -0.0390625 1.625 0 L 1.625 -1.15625 C 2.820312 -1.238281 3.707031 -1.394531 4.28125 -1.625 C 4.863281 -1.851562 5.253906 -2.316406 5.453125 -3.015625 C 5.648438 -3.710938 5.75 -4.757812 5.75 -6.15625 L 5.75 -34.921875 C 5.75 -36.359375 5.648438 -37.414062 5.453125 -38.09375 C 5.253906 -38.769531 4.851562 -39.234375 4.25 -39.484375 C 3.65625 -39.734375 2.78125 -39.878906 1.625 -39.921875 L 1.625 -41.078125 C 3.320312 -41.035156 5.128906 -41.003906 7.046875 -40.984375 C 8.960938 -40.960938 10.859375 -40.941406 12.734375 -40.921875 C 14.609375 -40.910156 16.347656 -40.90625 17.953125 -40.90625 C 19.554688 -40.90625 20.882812 -40.90625 21.9375 -40.90625 C 23.707031 -40.90625 25.722656 -40.910156 27.984375 -40.921875 C 30.253906 -40.941406 32.28125 -40.992188 34.0625 -41.078125 Z M 25.640625 -21.234375 C 25.640625 -21.234375 25.640625 -21.039062 25.640625 -20.65625 C 25.640625 -20.269531 25.640625 -20.078125 25.640625 -20.078125 L 15.78125 -20.078125 C 15.78125 -20.078125 15.78125 -20.269531 15.78125 -20.65625 C 15.78125 -21.039062 15.78125 -21.234375 15.78125 -21.234375 Z M 27.328125 -28.890625 C 27.171875 -26.679688 27.101562 -25 27.125 -23.84375 C 27.144531 -22.6875 27.15625 -21.625 27.15625 -20.65625 C 27.15625 -19.6875 27.171875 -18.617188 27.203125 -17.453125 C 27.242188 -16.296875 27.34375 -14.617188 27.5 -12.421875 L 26.171875 -12.421875 C 25.929688 -13.847656 25.453125 -15.140625 24.734375 -16.296875 C 24.023438 -17.460938 23.109375 -18.382812 21.984375 -19.0625 C 20.867188 -19.738281 19.570312 -20.078125 18.09375 -20.078125 L 18.09375 -21.234375 C 19.175781 -21.234375 20.160156 -21.460938 21.046875 -21.921875 C 21.941406 -22.390625 22.726562 -23.007812 23.40625 -23.78125 C 24.082031 -24.5625 24.644531 -25.394531 25.09375 -26.28125 C 25.539062 -27.164062 25.835938 -28.035156 25.984375 -28.890625 Z M 27.328125 -28.890625 "/></g></g></g><g fill="#1345b7" fill-opacity="1"><g transform="translate(38.497612, 62.932602)"><g><path d="M 31.796875 -30.75 L 31.796875 -6.328125 C 31.796875 -4.585938 32.035156 -3.300781 32.515625 -2.46875 C 33.003906 -1.632812 33.847656 -1.21875 35.046875 -1.21875 L 35.046875 0 C 33.847656 -0.113281 32.644531 -0.171875 31.4375 -0.171875 C 29.507812 -0.171875 27.710938 -0.113281 26.046875 0 C 24.378906 0.113281 22.8125 0.328125 21.34375 0.640625 L 21.34375 -3.53125 C 20.414062 -1.988281 19.171875 -0.878906 17.609375 -0.203125 C 16.046875 0.472656 14.21875 0.8125 12.125 0.8125 C 10.34375 0.8125 8.9375 0.585938 7.90625 0.140625 C 6.882812 -0.296875 6.101562 -0.847656 5.5625 -1.515625 C 4.988281 -2.203125 4.566406 -3.125 4.296875 -4.28125 C 4.023438 -5.445312 3.890625 -7.019531 3.890625 -9 L 3.890625 -23.78125 C 3.890625 -25.519531 3.65625 -26.804688 3.1875 -27.640625 C 2.726562 -28.472656 1.878906 -28.890625 0.640625 -28.890625 L 0.640625 -30.109375 C 1.878906 -29.992188 3.078125 -29.9375 4.234375 -29.9375 C 6.171875 -29.9375 7.976562 -30.003906 9.65625 -30.140625 C 11.34375 -30.273438 12.898438 -30.476562 14.328125 -30.75 L 14.328125 -5.859375 C 14.328125 -5.046875 14.421875 -4.367188 14.609375 -3.828125 C 14.804688 -3.285156 15.117188 -2.878906 15.546875 -2.609375 C 15.972656 -2.335938 16.515625 -2.203125 17.171875 -2.203125 C 17.910156 -2.203125 18.585938 -2.375 19.203125 -2.71875 C 19.816406 -3.070312 20.328125 -3.566406 20.734375 -4.203125 C 21.140625 -4.835938 21.34375 -5.5625 21.34375 -6.375 L 21.34375 -23.78125 C 21.34375 -25.519531 21.109375 -26.804688 20.640625 -27.640625 C 20.179688 -28.472656 19.332031 -28.890625 18.09375 -28.890625 L 18.09375 -30.109375 C 19.332031 -29.992188 20.535156 -29.9375 21.703125 -29.9375 C 23.628906 -29.9375 25.429688 -30.003906 27.109375 -30.140625 C 28.796875 -30.273438 30.359375 -30.476562 31.796875 -30.75 Z M 31.796875 -30.75 "/></g></g></g><g fill="#1345b7" fill-opacity="1"><g transform="translate(74.584864, 62.932602)"><g><path d="M 1.625 -41.078125 C 2.75 -41.035156 4.226562 -40.992188 6.0625 -40.953125 C 7.894531 -40.921875 9.742188 -40.90625 11.609375 -40.90625 C 13.535156 -40.90625 15.390625 -40.921875 17.171875 -40.953125 C 18.953125 -40.992188 20.207031 -41.015625 20.9375 -41.015625 C 24.882812 -41.015625 28.144531 -40.644531 30.71875 -39.90625 C 33.289062 -39.175781 35.210938 -38.066406 36.484375 -36.578125 C 37.765625 -35.085938 38.40625 -33.203125 38.40625 -30.921875 C 38.40625 -29.492188 38.113281 -28.101562 37.53125 -26.75 C 36.957031 -25.394531 35.972656 -24.164062 34.578125 -23.0625 C 33.179688 -21.957031 31.273438 -21.085938 28.859375 -20.453125 C 26.441406 -19.816406 23.378906 -19.5 19.671875 -19.5 L 14.09375 -19.5 L 14.09375 -20.65625 L 19.09375 -20.65625 C 21.0625 -20.65625 22.554688 -21.085938 23.578125 -21.953125 C 24.609375 -22.828125 25.304688 -23.988281 25.671875 -25.4375 C 26.035156 -26.882812 26.21875 -28.5 26.21875 -30.28125 C 26.21875 -33.34375 25.800781 -35.710938 24.96875 -37.390625 C 24.144531 -39.078125 22.707031 -39.921875 20.65625 -39.921875 C 19.34375 -39.921875 18.488281 -39.585938 18.09375 -38.921875 C 17.707031 -38.265625 17.515625 -36.929688 17.515625 -34.921875 L 17.515625 -6.15625 C 17.515625 -4.757812 17.617188 -3.710938 17.828125 -3.015625 C 18.046875 -2.316406 18.445312 -1.851562 19.03125 -1.625 C 19.613281 -1.394531 20.484375 -1.238281 21.640625 -1.15625 L 21.640625 0 C 20.515625 -0.0703125 19.070312 -0.117188 17.3125 -0.140625 C 15.550781 -0.160156 13.765625 -0.171875 11.953125 -0.171875 C 9.859375 -0.171875 7.894531 -0.160156 6.0625 -0.140625 C 4.226562 -0.117188 2.75 -0.0703125 1.625 0 L 1.625 -1.15625 C 2.820312 -1.238281 3.707031 -1.394531 4.28125 -1.625 C 4.863281 -1.851562 5.253906 -2.316406 5.453125 -3.015625 C 5.648438 -3.710938 5.75 -4.757812 5.75 -6.15625 L 5.75 -34.921875 C 5.75 -36.359375 5.648438 -37.414062 5.453125 -38.09375 C 5.253906 -38.769531 4.851562 -39.234375 4.25 -39.484375 C 3.65625 -39.734375 2.78125 -39.878906 1.625 -39.921875 Z M 13.75 -20.484375 C 15.144531 -20.441406 16.457031 -20.363281 17.6875 -20.25 C 18.925781 -20.132812 20.066406 -20.023438 21.109375 -19.921875 C 22.160156 -19.828125 23.050781 -19.757812 23.78125 -19.71875 C 27.925781 -19.53125 31.03125 -18.816406 33.09375 -17.578125 C 35.164062 -16.335938 36.429688 -14.519531 36.890625 -12.125 L 38.109375 -6.09375 C 38.421875 -4.65625 38.769531 -3.664062 39.15625 -3.125 C 39.539062 -2.59375 40.066406 -2.328125 40.734375 -2.328125 C 41.117188 -2.328125 41.445312 -2.382812 41.71875 -2.5 C 41.988281 -2.613281 42.257812 -2.804688 42.53125 -3.078125 L 43.28125 -2.328125 C 42.082031 -1.117188 40.773438 -0.296875 39.359375 0.140625 C 37.953125 0.585938 36.359375 0.8125 34.578125 0.8125 C 32.066406 0.8125 30.035156 0.359375 28.484375 -0.546875 C 26.941406 -1.460938 25.992188 -3.097656 25.640625 -5.453125 L 24.765625 -11.25 C 24.535156 -12.84375 24.242188 -14.253906 23.890625 -15.484375 C 23.546875 -16.722656 23.082031 -17.703125 22.5 -18.421875 C 21.925781 -19.140625 21.132812 -19.5 20.125 -19.5 L 13.859375 -19.5 Z M 13.75 -20.484375 "/></g></g></g><g fill="#1345b7" fill-opacity="1"><g transform="translate(116.415911, 62.932602)"><g><path d="M 16.703125 -30.921875 C 20.109375 -30.921875 22.785156 -29.925781 24.734375 -27.9375 C 26.691406 -25.945312 27.671875 -22.609375 27.671875 -17.921875 L 9.515625 -17.921875 L 9.40625 -19.03125 L 19.203125 -19.03125 C 19.242188 -20.925781 19.164062 -22.675781 18.96875 -24.28125 C 18.78125 -25.882812 18.472656 -27.171875 18.046875 -28.140625 C 17.617188 -29.109375 17.035156 -29.59375 16.296875 -29.59375 C 15.253906 -29.59375 14.40625 -28.769531 13.75 -27.125 C 13.09375 -25.476562 12.664062 -22.664062 12.46875 -18.6875 L 12.703125 -18.21875 C 12.660156 -17.832031 12.640625 -17.441406 12.640625 -17.046875 C 12.640625 -16.660156 12.640625 -16.257812 12.640625 -15.84375 C 12.640625 -13.132812 12.976562 -11.023438 13.65625 -9.515625 C 14.332031 -8.003906 15.179688 -6.957031 16.203125 -6.375 C 17.234375 -5.800781 18.269531 -5.515625 19.3125 -5.515625 C 19.851562 -5.515625 20.5 -5.585938 21.25 -5.734375 C 22.007812 -5.890625 22.832031 -6.25 23.71875 -6.8125 C 24.613281 -7.375 25.488281 -8.238281 26.34375 -9.40625 L 27.328125 -9.046875 C 26.859375 -7.503906 26.109375 -5.96875 25.078125 -4.4375 C 24.054688 -2.90625 22.734375 -1.644531 21.109375 -0.65625 C 19.492188 0.320312 17.523438 0.8125 15.203125 0.8125 C 12.722656 0.8125 10.46875 0.3125 8.4375 -0.6875 C 6.40625 -1.695312 4.789062 -3.363281 3.59375 -5.6875 C 2.394531 -8.007812 1.796875 -11.125 1.796875 -15.03125 C 1.796875 -18.738281 2.453125 -21.757812 3.765625 -24.09375 C 5.085938 -26.4375 6.878906 -28.160156 9.140625 -29.265625 C 11.398438 -30.367188 13.921875 -30.921875 16.703125 -30.921875 Z M 16.703125 -30.921875 "/></g></g></g><g fill="#1345b7" fill-opacity="1"><g transform="translate(145.599007, 62.932602)"><g><path d="M 12.828125 10.90625 C 10.191406 10.90625 7.914062 10.703125 6 10.296875 C 4.09375 9.890625 2.613281 9.304688 1.5625 8.546875 C 0.519531 7.796875 0 6.878906 0 5.796875 C 0 4.710938 0.539062 3.695312 1.625 2.75 C 2.707031 1.800781 4.425781 1.054688 6.78125 0.515625 L 7.375 1.453125 C 6.75 2.179688 6.328125 2.84375 6.109375 3.4375 C 5.898438 4.039062 5.796875 4.613281 5.796875 5.15625 C 5.796875 6.664062 6.484375 7.835938 7.859375 8.671875 C 9.234375 9.503906 11.160156 9.921875 13.640625 9.921875 C 15.378906 9.921875 16.835938 9.675781 18.015625 9.1875 C 19.191406 8.707031 20.078125 8.039062 20.671875 7.1875 C 21.273438 6.34375 21.578125 5.378906 21.578125 4.296875 C 21.578125 3.210938 21.171875 2.28125 20.359375 1.5 C 19.546875 0.726562 17.90625 0.34375 15.4375 0.34375 L 12.296875 0.34375 C 10.515625 0.34375 9.023438 0.113281 7.828125 -0.34375 C 6.628906 -0.8125 5.71875 -1.457031 5.09375 -2.28125 C 4.476562 -3.113281 4.171875 -4.09375 4.171875 -5.21875 C 4.171875 -7.039062 4.882812 -8.566406 6.3125 -9.796875 C 7.75 -11.035156 9.585938 -12.140625 11.828125 -13.109375 L 12.359375 -12.640625 C 11.972656 -12.367188 11.566406 -12.039062 11.140625 -11.65625 C 10.710938 -11.269531 10.5 -10.710938 10.5 -9.984375 C 10.5 -8.742188 11.195312 -8.125 12.59375 -8.125 L 18.21875 -8.125 C 20.726562 -8.125 22.921875 -7.851562 24.796875 -7.3125 C 26.671875 -6.769531 28.140625 -5.890625 29.203125 -4.671875 C 30.273438 -3.453125 30.8125 -1.859375 30.8125 0.109375 C 30.8125 2.046875 30.179688 3.835938 28.921875 5.484375 C 27.660156 7.128906 25.710938 8.441406 23.078125 9.421875 C 20.453125 10.410156 17.035156 10.90625 12.828125 10.90625 Z M 13.640625 -12.359375 C 11.234375 -12.359375 9.09375 -12.6875 7.21875 -13.34375 C 5.34375 -14 3.863281 -15.015625 2.78125 -16.390625 C 1.695312 -17.765625 1.15625 -19.515625 1.15625 -21.640625 C 1.15625 -23.765625 1.695312 -25.515625 2.78125 -26.890625 C 3.863281 -28.265625 5.34375 -29.28125 7.21875 -29.9375 C 9.09375 -30.59375 11.234375 -30.921875 13.640625 -30.921875 C 16.035156 -30.921875 18.171875 -30.59375 20.046875 -29.9375 C 21.921875 -29.28125 23.398438 -28.265625 24.484375 -26.890625 C 25.566406 -25.515625 26.109375 -23.765625 26.109375 -21.640625 C 26.109375 -19.515625 25.566406 -17.765625 24.484375 -16.390625 C 23.398438 -15.015625 21.921875 -14 20.046875 -13.34375 C 18.171875 -12.6875 16.035156 -12.359375 13.640625 -12.359375 Z M 13.640625 -13.40625 C 14.367188 -13.40625 14.945312 -14.003906 15.375 -15.203125 C 15.800781 -16.398438 16.015625 -18.546875 16.015625 -21.640625 C 16.015625 -24.734375 15.800781 -26.878906 15.375 -28.078125 C 14.945312 -29.273438 14.367188 -29.875 13.640625 -29.875 C 12.898438 -29.875 12.316406 -29.273438 11.890625 -28.078125 C 11.460938 -26.878906 11.25 -24.734375 11.25 -21.640625 C 11.25 -18.546875 11.460938 -16.398438 11.890625 -15.203125 C 12.316406 -14.003906 12.898438 -13.40625 13.640625 -13.40625 Z M 23.09375 -25.8125 L 21.875 -26.21875 C 22.488281 -27.84375 23.441406 -29.148438 24.734375 -30.140625 C 26.035156 -31.128906 27.457031 -31.625 29 -31.625 C 30.351562 -31.625 31.359375 -31.253906 32.015625 -30.515625 C 32.679688 -29.773438 33.015625 -28.867188 33.015625 -27.796875 C 33.015625 -26.671875 32.710938 -25.796875 32.109375 -25.171875 C 31.515625 -24.554688 30.789062 -24.25 29.9375 -24.25 C 29.195312 -24.25 28.523438 -24.5 27.921875 -25 C 27.328125 -25.507812 26.988281 -26.265625 26.90625 -27.265625 C 26.832031 -28.273438 27.203125 -29.550781 28.015625 -31.09375 L 28.25 -30.6875 C 26.894531 -30.1875 25.832031 -29.566406 25.0625 -28.828125 C 24.289062 -28.097656 23.632812 -27.09375 23.09375 -25.8125 Z M 23.09375 -25.8125 "/></g></g></g><g fill="#1345b7" fill-opacity="1"><g transform="translate(178.669318, 62.932602)"><g><path d="M 54.359375 -41.078125 L 54.359375 -39.921875 C 53.203125 -39.878906 52.320312 -39.734375 51.71875 -39.484375 C 51.125 -39.234375 50.726562 -38.769531 50.53125 -38.09375 C 50.332031 -37.414062 50.234375 -36.359375 50.234375 -34.921875 L 50.234375 -6.15625 C 50.234375 -4.757812 50.335938 -3.710938 50.546875 -3.015625 C 50.765625 -2.316406 51.164062 -1.851562 51.75 -1.625 C 52.332031 -1.394531 53.203125 -1.238281 54.359375 -1.15625 L 54.359375 0 C 53.160156 -0.0703125 51.632812 -0.117188 49.78125 -0.140625 C 47.925781 -0.160156 46.03125 -0.171875 44.09375 -0.171875 C 42 -0.171875 40.035156 -0.160156 38.203125 -0.140625 C 36.367188 -0.117188 34.890625 -0.0703125 33.765625 0 L 33.765625 -1.15625 C 35.078125 -1.238281 36.070312 -1.394531 36.75 -1.625 C 37.425781 -1.851562 37.878906 -2.316406 38.109375 -3.015625 C 38.347656 -3.710938 38.46875 -4.757812 38.46875 -6.15625 L 38.46875 -37.1875 L 39.046875 -37.296875 L 24.484375 -0.0625 L 23.546875 -0.0625 L 7.1875 -37.296875 L 7.1875 -11.375 C 7.1875 -8.78125 7.289062 -6.796875 7.5 -5.421875 C 7.71875 -4.046875 8.242188 -3.054688 9.078125 -2.453125 C 9.910156 -1.859375 11.234375 -1.425781 13.046875 -1.15625 L 13.046875 0 C 12.273438 -0.0703125 11.269531 -0.117188 10.03125 -0.140625 C 8.800781 -0.160156 7.644531 -0.171875 6.5625 -0.171875 C 5.707031 -0.171875 4.832031 -0.160156 3.9375 -0.140625 C 3.050781 -0.117188 2.316406 -0.0703125 1.734375 0 L 1.734375 -1.15625 C 2.929688 -1.425781 3.820312 -1.84375 4.40625 -2.40625 C 4.988281 -2.96875 5.375 -3.867188 5.5625 -5.109375 C 5.757812 -6.347656 5.859375 -8.046875 5.859375 -10.203125 L 5.859375 -34.921875 C 5.859375 -36.359375 5.757812 -37.414062 5.5625 -38.09375 C 5.375 -38.769531 4.976562 -39.234375 4.375 -39.484375 C 3.78125 -39.734375 2.898438 -39.878906 1.734375 -39.921875 L 1.734375 -41.078125 C 2.316406 -41.035156 3.050781 -40.992188 3.9375 -40.953125 C 4.832031 -40.921875 5.707031 -40.90625 6.5625 -40.90625 C 8.800781 -40.90625 10.945312 -40.921875 13 -40.953125 C 15.050781 -40.992188 16.90625 -41.035156 18.5625 -41.078125 L 30.046875 -15.203125 L 28.3125 -13.28125 L 39.046875 -40.90625 C 39.816406 -40.90625 40.644531 -40.90625 41.53125 -40.90625 C 42.425781 -40.90625 43.28125 -40.90625 44.09375 -40.90625 C 46.03125 -40.90625 47.925781 -40.921875 49.78125 -40.953125 C 51.632812 -40.992188 53.160156 -41.035156 54.359375 -41.078125 Z M 54.359375 -41.078125 "/></g></g></g><g fill="#1345b7" fill-opacity="1"><g transform="translate(233.496399, 62.932602)"><g><path d="M 16.703125 -30.921875 C 20.109375 -30.921875 22.785156 -29.925781 24.734375 -27.9375 C 26.691406 -25.945312 27.671875 -22.609375 27.671875 -17.921875 L 9.515625 -17.921875 L 9.40625 -19.03125 L 19.203125 -19.03125 C 19.242188 -20.925781 19.164062 -22.675781 18.96875 -24.28125 C 18.78125 -25.882812 18.472656 -27.171875 18.046875 -28.140625 C 17.617188 -29.109375 17.035156 -29.59375 16.296875 -29.59375 C 15.253906 -29.59375 14.40625 -28.769531 13.75 -27.125 C 13.09375 -25.476562 12.664062 -22.664062 12.46875 -18.6875 L 12.703125 -18.21875 C 12.660156 -17.832031 12.640625 -17.441406 12.640625 -17.046875 C 12.640625 -16.660156 12.640625 -16.257812 12.640625 -15.84375 C 12.640625 -13.132812 12.976562 -11.023438 13.65625 -9.515625 C 14.332031 -8.003906 15.179688 -6.957031 16.203125 -6.375 C 17.234375 -5.800781 18.269531 -5.515625 19.3125 -5.515625 C 19.851562 -5.515625 20.5 -5.585938 21.25 -5.734375 C 22.007812 -5.890625 22.832031 -6.25 23.71875 -6.8125 C 24.613281 -7.375 25.488281 -8.238281 26.34375 -9.40625 L 27.328125 -9.046875 C 26.859375 -7.503906 26.109375 -5.96875 25.078125 -4.4375 C 24.054688 -2.90625 22.734375 -1.644531 21.109375 -0.65625 C 19.492188 0.320312 17.523438 0.8125 15.203125 0.8125 C 12.722656 0.8125 10.46875 0.3125 8.4375 -0.6875 C 6.40625 -1.695312 4.789062 -3.363281 3.59375 -5.6875 C 2.394531 -8.007812 1.796875 -11.125 1.796875 -15.03125 C 1.796875 -18.738281 2.453125 -21.757812 3.765625 -24.09375 C 5.085938 -26.4375 6.878906 -28.160156 9.140625 -29.265625 C 11.398438 -30.367188 13.921875 -30.921875 16.703125 -30.921875 Z M 16.703125 -30.921875 "/></g></g></g><g fill="#1345b7" fill-opacity="1"><g transform="translate(262.679495, 62.932602)"><g/></g></g><g fill="#1345b7" fill-opacity="1"><g transform="translate(274.863282, 62.932602)"><g><path d="M 17.109375 -30.921875 C 20.328125 -30.921875 22.863281 -30.269531 24.71875 -28.96875 C 26.570312 -27.675781 27.5 -25.851562 27.5 -23.5 C 27.5 -22.03125 27.101562 -20.710938 26.3125 -19.546875 C 25.519531 -18.390625 24.484375 -17.316406 23.203125 -16.328125 C 21.929688 -15.347656 20.554688 -14.429688 19.078125 -13.578125 C 17.609375 -12.722656 16.1875 -11.890625 14.8125 -11.078125 C 13.445312 -10.265625 12.257812 -9.414062 11.25 -8.53125 L 24.359375 -8.53125 C 25.953125 -8.53125 26.957031 -8.703125 27.375 -9.046875 C 27.800781 -9.398438 28.09375 -10.019531 28.25 -10.90625 L 29.59375 -10.90625 C 29.59375 -7.96875 29.609375 -5.675781 29.640625 -4.03125 C 29.679688 -2.382812 29.738281 -0.941406 29.8125 0.296875 C 29.46875 0.210938 28.832031 0.148438 27.90625 0.109375 C 26.976562 0.078125 25.914062 0.0507812 24.71875 0.03125 C 23.519531 0.0078125 22.335938 0 21.171875 0 L 2.09375 0 L 2.09375 -1.21875 C 3.132812 -2.257812 4.4375 -3.457031 6 -4.8125 C 7.570312 -6.164062 9.117188 -7.679688 10.640625 -9.359375 C 12.171875 -11.046875 13.457031 -12.875 14.5 -14.84375 C 15.550781 -16.820312 16.078125 -18.929688 16.078125 -21.171875 C 16.078125 -23.148438 15.648438 -24.59375 14.796875 -25.5 C 13.941406 -26.40625 12.644531 -26.859375 10.90625 -26.859375 C 9.207031 -26.859375 7.738281 -26.519531 6.5 -25.84375 C 5.257812 -25.164062 4.140625 -24.207031 3.140625 -22.96875 L 2.140625 -23.671875 C 3.066406 -25.023438 4.175781 -26.25 5.46875 -27.34375 C 6.769531 -28.445312 8.367188 -29.316406 10.265625 -29.953125 C 12.160156 -30.597656 14.441406 -30.921875 17.109375 -30.921875 Z M 17.109375 -30.921875 "/></g></g></g><g fill="#1345b7" fill-opacity="1"><g transform="translate(306.947284, 62.932602)"><g><path d="M 19.90625 -30.921875 C 23.226562 -30.921875 26.15625 -30.28125 28.6875 -29 C 31.21875 -27.726562 33.207031 -25.941406 34.65625 -23.640625 C 36.113281 -21.335938 36.84375 -18.640625 36.84375 -15.546875 C 36.84375 -12.453125 36.109375 -9.664062 34.640625 -7.1875 C 33.171875 -4.71875 31.117188 -2.765625 28.484375 -1.328125 C 25.859375 0.0976562 22.785156 0.8125 19.265625 0.8125 C 16.015625 0.8125 13.113281 0.175781 10.5625 -1.09375 C 8.007812 -2.375 6 -4.175781 4.53125 -6.5 C 3.0625 -8.820312 2.328125 -11.53125 2.328125 -14.625 C 2.328125 -17.675781 3.050781 -20.429688 4.5 -22.890625 C 5.945312 -25.347656 7.992188 -27.300781 10.640625 -28.75 C 13.296875 -30.195312 16.382812 -30.921875 19.90625 -30.921875 Z M 19.375 -29.875 C 17.59375 -29.875 16.113281 -28.539062 14.9375 -25.875 C 13.757812 -23.207031 13.171875 -19.515625 13.171875 -14.796875 C 13.171875 -11.316406 13.476562 -8.503906 14.09375 -6.359375 C 14.71875 -4.210938 15.53125 -2.65625 16.53125 -1.6875 C 17.539062 -0.71875 18.625 -0.234375 19.78125 -0.234375 C 21.601562 -0.234375 23.09375 -1.578125 24.25 -4.265625 C 25.40625 -6.953125 25.984375 -10.65625 25.984375 -15.375 C 25.984375 -18.851562 25.675781 -21.65625 25.0625 -23.78125 C 24.445312 -25.914062 23.644531 -27.460938 22.65625 -28.421875 C 21.664062 -29.390625 20.570312 -29.875 19.375 -29.875 Z M 19.375 -29.875 "/></g></g></g><g fill="#1345b7" fill-opacity="1"><g transform="translate(346.109487, 62.932602)"><g><path d="M 17.109375 -30.921875 C 20.328125 -30.921875 22.863281 -30.269531 24.71875 -28.96875 C 26.570312 -27.675781 27.5 -25.851562 27.5 -23.5 C 27.5 -22.03125 27.101562 -20.710938 26.3125 -19.546875 C 25.519531 -18.390625 24.484375 -17.316406 23.203125 -16.328125 C 21.929688 -15.347656 20.554688 -14.429688 19.078125 -13.578125 C 17.609375 -12.722656 16.1875 -11.890625 14.8125 -11.078125 C 13.445312 -10.265625 12.257812 -9.414062 11.25 -8.53125 L 24.359375 -8.53125 C 25.953125 -8.53125 26.957031 -8.703125 27.375 -9.046875 C 27.800781 -9.398438 28.09375 -10.019531 28.25 -10.90625 L 29.59375 -10.90625 C 29.59375 -7.96875 29.609375 -5.675781 29.640625 -4.03125 C 29.679688 -2.382812 29.738281 -0.941406 29.8125 0.296875 C 29.46875 0.210938 28.832031 0.148438 27.90625 0.109375 C 26.976562 0.078125 25.914062 0.0507812 24.71875 0.03125 C 23.519531 0.0078125 22.335938 0 21.171875 0 L 2.09375 0 L 2.09375 -1.21875 C 3.132812 -2.257812 4.4375 -3.457031 6 -4.8125 C 7.570312 -6.164062 9.117188 -7.679688 10.640625 -9.359375 C 12.171875 -11.046875 13.457031 -12.875 14.5 -14.84375 C 15.550781 -16.820312 16.078125 -18.929688 16.078125 -21.171875 C 16.078125 -23.148438 15.648438 -24.59375 14.796875 -25.5 C 13.941406 -26.40625 12.644531 -26.859375 10.90625 -26.859375 C 9.207031 -26.859375 7.738281 -26.519531 6.5 -25.84375 C 5.257812 -25.164062 4.140625 -24.207031 3.140625 -22.96875 L 2.140625 -23.671875 C 3.066406 -25.023438 4.175781 -26.25 5.46875 -27.34375 C 6.769531 -28.445312 8.367188 -29.316406 10.265625 -29.953125 C 12.160156 -30.597656 14.441406 -30.921875 17.109375 -30.921875 Z M 17.109375 -30.921875 "/></g></g></g><g fill="#1345b7" fill-opacity="1"><g transform="translate(378.193489, 62.932602)"><g><path d="M 27.90625 -41.9375 L 28.140625 -40.78125 C 26.671875 -40.320312 25.21875 -39.753906 23.78125 -39.078125 C 22.351562 -38.398438 21 -37.488281 19.71875 -36.34375 C 18.445312 -35.207031 17.328125 -33.726562 16.359375 -31.90625 C 15.390625 -30.09375 14.632812 -27.820312 14.09375 -25.09375 C 13.550781 -22.363281 13.28125 -19.046875 13.28125 -15.140625 C 13.28125 -11.460938 13.507812 -8.539062 13.96875 -6.375 C 14.4375 -4.21875 15.03125 -2.671875 15.75 -1.734375 C 16.46875 -0.804688 17.175781 -0.34375 17.875 -0.34375 C 18.5625 -0.34375 19.222656 -0.75 19.859375 -1.5625 C 20.503906 -2.375 21.019531 -3.679688 21.40625 -5.484375 C 21.789062 -7.285156 21.984375 -9.65625 21.984375 -12.59375 C 21.984375 -15.375 21.800781 -17.59375 21.4375 -19.25 C 21.070312 -20.914062 20.585938 -22.113281 19.984375 -22.84375 C 19.390625 -23.582031 18.703125 -23.953125 17.921875 -23.953125 C 17.421875 -23.953125 16.820312 -23.757812 16.125 -23.375 C 15.425781 -22.988281 14.785156 -22.378906 14.203125 -21.546875 C 13.628906 -20.722656 13.207031 -19.59375 12.9375 -18.15625 L 12.421875 -18.734375 C 12.648438 -20.398438 13.160156 -21.734375 13.953125 -22.734375 C 14.742188 -23.742188 15.738281 -24.476562 16.9375 -24.9375 C 18.132812 -25.40625 19.429688 -25.640625 20.828125 -25.640625 C 23.066406 -25.640625 25.085938 -25.125 26.890625 -24.09375 C 28.691406 -23.070312 30.132812 -21.632812 31.21875 -19.78125 C 32.300781 -17.925781 32.84375 -15.703125 32.84375 -13.109375 C 32.84375 -10.128906 32.125 -7.59375 30.6875 -5.5 C 29.257812 -3.414062 27.351562 -1.84375 24.96875 -0.78125 C 22.59375 0.28125 20.015625 0.8125 17.234375 0.8125 C 12.628906 0.8125 9.007812 -0.625 6.375 -3.5 C 3.75 -6.382812 2.4375 -10.457031 2.4375 -15.71875 C 2.4375 -19.195312 2.988281 -22.289062 4.09375 -25 C 5.195312 -27.707031 6.65625 -30.054688 8.46875 -32.046875 C 10.289062 -34.046875 12.320312 -35.722656 14.5625 -37.078125 C 16.800781 -38.429688 19.082031 -39.503906 21.40625 -40.296875 C 23.726562 -41.085938 25.894531 -41.632812 27.90625 -41.9375 Z M 27.90625 -41.9375 "/></g></g></g><g fill="#1345b7" fill-opacity="1"><g transform="translate(73.04998, 105.643143)"><g><path d="M 13 -10.375 C 13 -9.488281 12.796875 -8.675781 12.390625 -7.9375 C 11.984375 -7.207031 11.359375 -6.613281 10.515625 -6.15625 C 9.671875 -5.707031 8.628906 -5.484375 7.390625 -5.484375 L 5.078125 -5.484375 L 5.078125 0 L 1.34375 0 L 1.34375 -15.296875 L 7.390625 -15.296875 C 8.609375 -15.296875 9.632812 -15.082031 10.46875 -14.65625 C 11.3125 -14.238281 11.941406 -13.660156 12.359375 -12.921875 C 12.785156 -12.179688 13 -11.332031 13 -10.375 Z M 7.09375 -8.453125 C 7.8125 -8.453125 8.34375 -8.617188 8.6875 -8.953125 C 9.039062 -9.285156 9.21875 -9.757812 9.21875 -10.375 C 9.21875 -10.976562 9.039062 -11.445312 8.6875 -11.78125 C 8.34375 -12.113281 7.8125 -12.28125 7.09375 -12.28125 L 5.078125 -12.28125 L 5.078125 -8.453125 Z M 7.09375 -8.453125 "/></g></g></g><g fill="#1345b7" fill-opacity="1"><g transform="translate(86.635954, 105.643143)"><g><path d="M 5.078125 -10.125 C 5.515625 -10.789062 6.054688 -11.316406 6.703125 -11.703125 C 7.359375 -12.085938 8.085938 -12.28125 8.890625 -12.28125 L 8.890625 -8.34375 L 7.859375 -8.34375 C 6.929688 -8.34375 6.234375 -8.140625 5.765625 -7.734375 C 5.304688 -7.335938 5.078125 -6.640625 5.078125 -5.640625 L 5.078125 0 L 1.34375 0 L 1.34375 -12.15625 L 5.078125 -12.15625 Z M 5.078125 -10.125 "/></g></g></g><g fill="#1345b7" fill-opacity="1"><g transform="translate(95.95454, 105.643143)"><g><path d="M 0.609375 -6.09375 C 0.609375 -7.34375 0.84375 -8.4375 1.3125 -9.375 C 1.789062 -10.320312 2.4375 -11.050781 3.25 -11.5625 C 4.0625 -12.070312 4.96875 -12.328125 5.96875 -12.328125 C 6.820312 -12.328125 7.570312 -12.148438 8.21875 -11.796875 C 8.863281 -11.453125 9.363281 -11 9.71875 -10.4375 L 9.71875 -12.15625 L 13.4375 -12.15625 L 13.4375 0 L 9.71875 0 L 9.71875 -1.71875 C 9.351562 -1.15625 8.847656 -0.695312 8.203125 -0.34375 C 7.554688 0 6.804688 0.171875 5.953125 0.171875 C 4.960938 0.171875 4.0625 -0.0820312 3.25 -0.59375 C 2.4375 -1.113281 1.789062 -1.847656 1.3125 -2.796875 C 0.84375 -3.742188 0.609375 -4.84375 0.609375 -6.09375 Z M 9.71875 -6.078125 C 9.71875 -7.003906 9.457031 -7.734375 8.9375 -8.265625 C 8.425781 -8.804688 7.800781 -9.078125 7.0625 -9.078125 C 6.320312 -9.078125 5.691406 -8.8125 5.171875 -8.28125 C 4.660156 -7.757812 4.40625 -7.03125 4.40625 -6.09375 C 4.40625 -5.164062 4.660156 -4.429688 5.171875 -3.890625 C 5.691406 -3.347656 6.320312 -3.078125 7.0625 -3.078125 C 7.800781 -3.078125 8.425781 -3.34375 8.9375 -3.875 C 9.457031 -4.414062 9.71875 -5.148438 9.71875 -6.078125 Z M 9.71875 -6.078125 "/></g></g></g><g fill="#1345b7" fill-opacity="1"><g transform="translate(110.737994, 105.643143)"><g><path d="M 5.96875 -12.328125 C 6.820312 -12.328125 7.570312 -12.148438 8.21875 -11.796875 C 8.863281 -11.453125 9.363281 -11 9.71875 -10.4375 L 9.71875 -12.15625 L 13.4375 -12.15625 L 13.4375 -0.015625 C 13.4375 1.097656 13.210938 2.109375 12.765625 3.015625 C 12.328125 3.921875 11.65625 4.640625 10.75 5.171875 C 9.84375 5.710938 8.710938 5.984375 7.359375 5.984375 C 5.554688 5.984375 4.097656 5.554688 2.984375 4.703125 C 1.867188 3.859375 1.226562 2.710938 1.0625 1.265625 L 4.75 1.265625 C 4.863281 1.722656 5.140625 2.085938 5.578125 2.359375 C 6.015625 2.628906 6.550781 2.765625 7.1875 2.765625 C 7.957031 2.765625 8.570312 2.539062 9.03125 2.09375 C 9.488281 1.65625 9.71875 0.953125 9.71875 -0.015625 L 9.71875 -1.75 C 9.351562 -1.175781 8.847656 -0.710938 8.203125 -0.359375 C 7.566406 -0.00390625 6.820312 0.171875 5.96875 0.171875 C 4.96875 0.171875 4.0625 -0.0820312 3.25 -0.59375 C 2.4375 -1.113281 1.789062 -1.847656 1.3125 -2.796875 C 0.84375 -3.742188 0.609375 -4.84375 0.609375 -6.09375 C 0.609375 -7.34375 0.84375 -8.4375 1.3125 -9.375 C 1.789062 -10.320312 2.4375 -11.050781 3.25 -11.5625 C 4.0625 -12.070312 4.96875 -12.328125 5.96875 -12.328125 Z M 9.71875 -6.078125 C 9.71875 -7.003906 9.457031 -7.734375 8.9375 -8.265625 C 8.425781 -8.804688 7.800781 -9.078125 7.0625 -9.078125 C 6.320312 -9.078125 5.691406 -8.8125 5.171875 -8.28125 C 4.660156 -7.757812 4.40625 -7.03125 4.40625 -6.09375 C 4.40625 -5.164062 4.660156 -4.429688 5.171875 -3.890625 C 5.691406 -3.347656 6.320312 -3.078125 7.0625 -3.078125 C 7.800781 -3.078125 8.425781 -3.34375 8.9375 -3.875 C 9.457031 -4.414062 9.71875 -5.148438 9.71875 -6.078125 Z M 9.71875 -6.078125 "/></g></g></g><g fill="#1345b7" fill-opacity="1"><g transform="translate(125.521448, 105.643143)"><g><path d="M 13.359375 -12.15625 L 13.359375 0 L 9.625 0 L 9.625 -1.65625 C 9.25 -1.113281 8.738281 -0.679688 8.09375 -0.359375 C 7.445312 -0.0351562 6.734375 0.125 5.953125 0.125 C 5.015625 0.125 4.191406 -0.078125 3.484375 -0.484375 C 2.773438 -0.898438 2.222656 -1.5 1.828125 -2.28125 C 1.429688 -3.070312 1.234375 -3.992188 1.234375 -5.046875 L 1.234375 -12.15625 L 4.9375 -12.15625 L 4.9375 -5.546875 C 4.9375 -4.734375 5.144531 -4.101562 5.5625 -3.65625 C 5.988281 -3.207031 6.5625 -2.984375 7.28125 -2.984375 C 8 -2.984375 8.566406 -3.207031 8.984375 -3.65625 C 9.410156 -4.101562 9.625 -4.734375 9.625 -5.546875 L 9.625 -12.15625 Z M 13.359375 -12.15625 "/></g></g></g><g fill="#1345b7" fill-opacity="1"><g transform="translate(140.196043, 105.643143)"><g><path d="M 12.8125 -6.265625 C 12.8125 -5.921875 12.785156 -5.5625 12.734375 -5.1875 L 4.3125 -5.1875 C 4.375 -4.425781 4.617188 -3.847656 5.046875 -3.453125 C 5.472656 -3.054688 6 -2.859375 6.625 -2.859375 C 7.550781 -2.859375 8.195312 -3.25 8.5625 -4.03125 L 12.53125 -4.03125 C 12.320312 -3.226562 11.953125 -2.507812 11.421875 -1.875 C 10.890625 -1.238281 10.222656 -0.738281 9.421875 -0.375 C 8.628906 -0.0078125 7.738281 0.171875 6.75 0.171875 C 5.5625 0.171875 4.5 -0.078125 3.5625 -0.578125 C 2.632812 -1.085938 1.910156 -1.816406 1.390625 -2.765625 C 0.867188 -3.710938 0.609375 -4.816406 0.609375 -6.078125 C 0.609375 -7.335938 0.863281 -8.4375 1.375 -9.375 C 1.894531 -10.320312 2.617188 -11.050781 3.546875 -11.5625 C 4.472656 -12.070312 5.539062 -12.328125 6.75 -12.328125 C 7.925781 -12.328125 8.972656 -12.078125 9.890625 -11.578125 C 10.804688 -11.085938 11.519531 -10.382812 12.03125 -9.46875 C 12.550781 -8.5625 12.8125 -7.492188 12.8125 -6.265625 Z M 9 -7.25 C 9 -7.894531 8.78125 -8.40625 8.34375 -8.78125 C 7.90625 -9.15625 7.359375 -9.34375 6.703125 -9.34375 C 6.078125 -9.34375 5.550781 -9.160156 5.125 -8.796875 C 4.695312 -8.429688 4.429688 -7.914062 4.328125 -7.25 Z M 9 -7.25 "/></g></g></g><g fill="#1345b7" fill-opacity="1"><g transform="translate(153.607838, 105.643143)"><g><path d="M 5.359375 -3.4375 L 2.9375 2.8125 L 0.5625 2.8125 L 1.828125 -3.4375 Z M 5.359375 -3.4375 "/></g></g></g><g fill="#1345b7" fill-opacity="1"><g transform="translate(159.856515, 105.643143)"><g/></g></g><g fill="#1345b7" fill-opacity="1"><g transform="translate(164.472266, 105.643143)"><g><path d="M 0.71875 -7.671875 C 0.71875 -9.179688 1.039062 -10.523438 1.6875 -11.703125 C 2.34375 -12.890625 3.253906 -13.8125 4.421875 -14.46875 C 5.597656 -15.132812 6.925781 -15.46875 8.40625 -15.46875 C 10.21875 -15.46875 11.769531 -14.988281 13.0625 -14.03125 C 14.351562 -13.070312 15.21875 -11.765625 15.65625 -10.109375 L 11.5625 -10.109375 C 11.257812 -10.742188 10.828125 -11.226562 10.265625 -11.5625 C 9.710938 -11.894531 9.078125 -12.0625 8.359375 -12.0625 C 7.210938 -12.0625 6.285156 -11.660156 5.578125 -10.859375 C 4.867188 -10.066406 4.515625 -9.003906 4.515625 -7.671875 C 4.515625 -6.328125 4.867188 -5.253906 5.578125 -4.453125 C 6.285156 -3.660156 7.210938 -3.265625 8.359375 -3.265625 C 9.078125 -3.265625 9.710938 -3.429688 10.265625 -3.765625 C 10.828125 -4.097656 11.257812 -4.585938 11.5625 -5.234375 L 15.65625 -5.234375 C 15.21875 -3.578125 14.351562 -2.269531 13.0625 -1.3125 C 11.769531 -0.363281 10.21875 0.109375 8.40625 0.109375 C 6.925781 0.109375 5.597656 -0.21875 4.421875 -0.875 C 3.253906 -1.539062 2.34375 -2.460938 1.6875 -3.640625 C 1.039062 -4.816406 0.71875 -6.160156 0.71875 -7.671875 Z M 0.71875 -7.671875 "/></g></g></g><g fill="#1345b7" fill-opacity="1"><g transform="translate(181.062824, 105.643143)"><g><path d="M 4.828125 -3.078125 L 10.109375 -3.078125 L 10.109375 0 L 0.671875 0 L 0.671875 -2.96875 L 5.734375 -9.078125 L 0.71875 -9.078125 L 0.71875 -12.15625 L 10 -12.15625 L 10 -9.1875 Z M 4.828125 -3.078125 "/></g></g></g><g fill="#1345b7" fill-opacity="1"><g transform="translate(191.861932, 105.643143)"><g><path d="M 12.8125 -6.265625 C 12.8125 -5.921875 12.785156 -5.5625 12.734375 -5.1875 L 4.3125 -5.1875 C 4.375 -4.425781 4.617188 -3.847656 5.046875 -3.453125 C 5.472656 -3.054688 6 -2.859375 6.625 -2.859375 C 7.550781 -2.859375 8.195312 -3.25 8.5625 -4.03125 L 12.53125 -4.03125 C 12.320312 -3.226562 11.953125 -2.507812 11.421875 -1.875 C 10.890625 -1.238281 10.222656 -0.738281 9.421875 -0.375 C 8.628906 -0.0078125 7.738281 0.171875 6.75 0.171875 C 5.5625 0.171875 4.5 -0.078125 3.5625 -0.578125 C 2.632812 -1.085938 1.910156 -1.816406 1.390625 -2.765625 C 0.867188 -3.710938 0.609375 -4.816406 0.609375 -6.078125 C 0.609375 -7.335938 0.863281 -8.4375 1.375 -9.375 C 1.894531 -10.320312 2.617188 -11.050781 3.546875 -11.5625 C 4.472656 -12.070312 5.539062 -12.328125 6.75 -12.328125 C 7.925781 -12.328125 8.972656 -12.078125 9.890625 -11.578125 C 10.804688 -11.085938 11.519531 -10.382812 12.03125 -9.46875 C 12.550781 -8.5625 12.8125 -7.492188 12.8125 -6.265625 Z M 9 -7.25 C 9 -7.894531 8.78125 -8.40625 8.34375 -8.78125 C 7.90625 -9.15625 7.359375 -9.34375 6.703125 -9.34375 C 6.078125 -9.34375 5.550781 -9.160156 5.125 -8.796875 C 4.695312 -8.429688 4.429688 -7.914062 4.328125 -7.25 Z M 9 -7.25 "/></g></g></g><g fill="#1345b7" fill-opacity="1"><g transform="translate(205.273728, 105.643143)"><g><path d="M 0.609375 -6.078125 C 0.609375 -7.335938 0.863281 -8.4375 1.375 -9.375 C 1.894531 -10.320312 2.613281 -11.050781 3.53125 -11.5625 C 4.457031 -12.070312 5.515625 -12.328125 6.703125 -12.328125 C 8.234375 -12.328125 9.507812 -11.925781 10.53125 -11.125 C 11.550781 -10.332031 12.222656 -9.207031 12.546875 -7.75 L 8.578125 -7.75 C 8.242188 -8.675781 7.597656 -9.140625 6.640625 -9.140625 C 5.960938 -9.140625 5.421875 -8.875 5.015625 -8.34375 C 4.609375 -7.820312 4.40625 -7.066406 4.40625 -6.078125 C 4.40625 -5.085938 4.609375 -4.328125 5.015625 -3.796875 C 5.421875 -3.265625 5.960938 -3 6.640625 -3 C 7.597656 -3 8.242188 -3.46875 8.578125 -4.40625 L 12.546875 -4.40625 C 12.222656 -2.976562 11.546875 -1.859375 10.515625 -1.046875 C 9.484375 -0.234375 8.210938 0.171875 6.703125 0.171875 C 5.515625 0.171875 4.457031 -0.078125 3.53125 -0.578125 C 2.613281 -1.085938 1.894531 -1.816406 1.375 -2.765625 C 0.863281 -3.710938 0.609375 -4.816406 0.609375 -6.078125 Z M 0.609375 -6.078125 "/></g></g></g><g fill="#1345b7" fill-opacity="1"><g transform="translate(218.446031, 105.643143)"><g><path d="M 8.828125 -12.28125 C 10.210938 -12.28125 11.328125 -11.816406 12.171875 -10.890625 C 13.015625 -9.972656 13.4375 -8.707031 13.4375 -7.09375 L 13.4375 0 L 9.734375 0 L 9.734375 -6.59375 C 9.734375 -7.40625 9.519531 -8.035156 9.09375 -8.484375 C 8.675781 -8.941406 8.113281 -9.171875 7.40625 -9.171875 C 6.695312 -9.171875 6.128906 -8.941406 5.703125 -8.484375 C 5.285156 -8.035156 5.078125 -7.40625 5.078125 -6.59375 L 5.078125 0 L 1.34375 0 L 1.34375 -16.125 L 5.078125 -16.125 L 5.078125 -10.515625 C 5.453125 -11.054688 5.96875 -11.484375 6.625 -11.796875 C 7.28125 -12.117188 8.015625 -12.28125 8.828125 -12.28125 Z M 8.828125 -12.28125 "/></g></g></g><g fill="#1345b7" fill-opacity="1"><g transform="translate(233.120616, 105.643143)"><g/></g></g><g fill="#1345b7" fill-opacity="1"><g transform="translate(237.736357, 105.643143)"><g><path d="M 9.140625 0 L 5.96875 -5.765625 L 5.078125 -5.765625 L 5.078125 0 L 1.34375 0 L 1.34375 -15.296875 L 7.609375 -15.296875 C 8.804688 -15.296875 9.828125 -15.082031 10.671875 -14.65625 C 11.523438 -14.238281 12.160156 -13.660156 12.578125 -12.921875 C 13.003906 -12.191406 13.21875 -11.378906 13.21875 -10.484375 C 13.21875 -9.460938 12.929688 -8.550781 12.359375 -7.75 C 11.785156 -6.957031 10.941406 -6.394531 9.828125 -6.0625 L 13.359375 0 Z M 5.078125 -8.40625 L 7.390625 -8.40625 C 8.066406 -8.40625 8.578125 -8.570312 8.921875 -8.90625 C 9.265625 -9.238281 9.4375 -9.710938 9.4375 -10.328125 C 9.4375 -10.910156 9.265625 -11.367188 8.921875 -11.703125 C 8.578125 -12.035156 8.066406 -12.203125 7.390625 -12.203125 L 5.078125 -12.203125 Z M 5.078125 -8.40625 "/></g></g></g><g fill="#1345b7" fill-opacity="1"><g transform="translate(251.931975, 105.643143)"><g><path d="M 12.8125 -6.265625 C 12.8125 -5.921875 12.785156 -5.5625 12.734375 -5.1875 L 4.3125 -5.1875 C 4.375 -4.425781 4.617188 -3.847656 5.046875 -3.453125 C 5.472656 -3.054688 6 -2.859375 6.625 -2.859375 C 7.550781 -2.859375 8.195312 -3.25 8.5625 -4.03125 L 12.53125 -4.03125 C 12.320312 -3.226562 11.953125 -2.507812 11.421875 -1.875 C 10.890625 -1.238281 10.222656 -0.738281 9.421875 -0.375 C 8.628906 -0.0078125 7.738281 0.171875 6.75 0.171875 C 5.5625 0.171875 4.5 -0.078125 3.5625 -0.578125 C 2.632812 -1.085938 1.910156 -1.816406 1.390625 -2.765625 C 0.867188 -3.710938 0.609375 -4.816406 0.609375 -6.078125 C 0.609375 -7.335938 0.863281 -8.4375 1.375 -9.375 C 1.894531 -10.320312 2.617188 -11.050781 3.546875 -11.5625 C 4.472656 -12.070312 5.539062 -12.328125 6.75 -12.328125 C 7.925781 -12.328125 8.972656 -12.078125 9.890625 -11.578125 C 10.804688 -11.085938 11.519531 -10.382812 12.03125 -9.46875 C 12.550781 -8.5625 12.8125 -7.492188 12.8125 -6.265625 Z M 9 -7.25 C 9 -7.894531 8.78125 -8.40625 8.34375 -8.78125 C 7.90625 -9.15625 7.359375 -9.34375 6.703125 -9.34375 C 6.078125 -9.34375 5.550781 -9.160156 5.125 -8.796875 C 4.695312 -8.429688 4.429688 -7.914062 4.328125 -7.25 Z M 9 -7.25 "/></g></g></g><g fill="#1345b7" fill-opacity="1"><g transform="translate(265.343761, 105.643143)"><g><path d="M 5.078125 -10.4375 C 5.441406 -11 5.941406 -11.453125 6.578125 -11.796875 C 7.210938 -12.148438 7.960938 -12.328125 8.828125 -12.328125 C 9.828125 -12.328125 10.734375 -12.070312 11.546875 -11.5625 C 12.359375 -11.050781 13 -10.320312 13.46875 -9.375 C 13.9375 -8.4375 14.171875 -7.34375 14.171875 -6.09375 C 14.171875 -4.84375 13.9375 -3.742188 13.46875 -2.796875 C 13 -1.847656 12.359375 -1.113281 11.546875 -0.59375 C 10.734375 -0.0820312 9.828125 0.171875 8.828125 0.171875 C 7.984375 0.171875 7.238281 0 6.59375 -0.34375 C 5.945312 -0.695312 5.441406 -1.148438 5.078125 -1.703125 L 5.078125 5.796875 L 1.34375 5.796875 L 1.34375 -12.15625 L 5.078125 -12.15625 Z M 10.390625 -6.09375 C 10.390625 -7.03125 10.128906 -7.757812 9.609375 -8.28125 C 9.097656 -8.8125 8.460938 -9.078125 7.703125 -9.078125 C 6.960938 -9.078125 6.332031 -8.804688 5.8125 -8.265625 C 5.300781 -7.734375 5.046875 -7.003906 5.046875 -6.078125 C 5.046875 -5.148438 5.300781 -4.414062 5.8125 -3.875 C 6.332031 -3.34375 6.960938 -3.078125 7.703125 -3.078125 C 8.453125 -3.078125 9.085938 -3.347656 9.609375 -3.890625 C 10.128906 -4.429688 10.390625 -5.164062 10.390625 -6.09375 Z M 10.390625 -6.09375 "/></g></g></g><g fill="#1345b7" fill-opacity="1"><g transform="translate(280.12722, 105.643143)"><g><path d="M 13.359375 -12.15625 L 13.359375 0 L 9.625 0 L 9.625 -1.65625 C 9.25 -1.113281 8.738281 -0.679688 8.09375 -0.359375 C 7.445312 -0.0351562 6.734375 0.125 5.953125 0.125 C 5.015625 0.125 4.191406 -0.078125 3.484375 -0.484375 C 2.773438 -0.898438 2.222656 -1.5 1.828125 -2.28125 C 1.429688 -3.070312 1.234375 -3.992188 1.234375 -5.046875 L 1.234375 -12.15625 L 4.9375 -12.15625 L 4.9375 -5.546875 C 4.9375 -4.734375 5.144531 -4.101562 5.5625 -3.65625 C 5.988281 -3.207031 6.5625 -2.984375 7.28125 -2.984375 C 8 -2.984375 8.566406 -3.207031 8.984375 -3.65625 C 9.410156 -4.101562 9.625 -4.734375 9.625 -5.546875 L 9.625 -12.15625 Z M 13.359375 -12.15625 "/></g></g></g><g fill="#1345b7" fill-opacity="1"><g transform="translate(294.801805, 105.643143)"><g><path d="M 5.078125 -10.4375 C 5.421875 -11 5.921875 -11.453125 6.578125 -11.796875 C 7.234375 -12.148438 7.984375 -12.328125 8.828125 -12.328125 C 9.828125 -12.328125 10.734375 -12.070312 11.546875 -11.5625 C 12.359375 -11.050781 13 -10.320312 13.46875 -9.375 C 13.9375 -8.4375 14.171875 -7.34375 14.171875 -6.09375 C 14.171875 -4.84375 13.9375 -3.742188 13.46875 -2.796875 C 13 -1.847656 12.359375 -1.113281 11.546875 -0.59375 C 10.734375 -0.0820312 9.828125 0.171875 8.828125 0.171875 C 7.960938 0.171875 7.210938 0.00390625 6.578125 -0.328125 C 5.941406 -0.671875 5.441406 -1.128906 5.078125 -1.703125 L 5.078125 0 L 1.34375 0 L 1.34375 -16.125 L 5.078125 -16.125 Z M 10.390625 -6.09375 C 10.390625 -7.03125 10.128906 -7.757812 9.609375 -8.28125 C 9.097656 -8.8125 8.460938 -9.078125 7.703125 -9.078125 C 6.960938 -9.078125 6.332031 -8.804688 5.8125 -8.265625 C 5.300781 -7.734375 5.046875 -7.003906 5.046875 -6.078125 C 5.046875 -5.148438 5.300781 -4.414062 5.8125 -3.875 C 6.332031 -3.34375 6.960938 -3.078125 7.703125 -3.078125 C 8.453125 -3.078125 9.085938 -3.347656 9.609375 -3.890625 C 10.128906 -4.429688 10.390625 -5.164062 10.390625 -6.09375 Z M 10.390625 -6.09375 "/></g></g></g><g fill="#1345b7" fill-opacity="1"><g transform="translate(309.585263, 105.643143)"><g><path d="M 5.078125 -16.125 L 5.078125 0 L 1.34375 0 L 1.34375 -16.125 Z M 5.078125 -16.125 "/></g></g></g><g fill="#1345b7" fill-opacity="1"><g transform="translate(316.008114, 105.643143)"><g><path d="M 3.21875 -13.421875 C 2.570312 -13.421875 2.039062 -13.613281 1.625 -14 C 1.207031 -14.382812 1 -14.859375 1 -15.421875 C 1 -16.003906 1.207031 -16.488281 1.625 -16.875 C 2.039062 -17.257812 2.570312 -17.453125 3.21875 -17.453125 C 3.863281 -17.453125 4.390625 -17.257812 4.796875 -16.875 C 5.210938 -16.488281 5.421875 -16.003906 5.421875 -15.421875 C 5.421875 -14.859375 5.210938 -14.382812 4.796875 -14 C 4.390625 -13.613281 3.863281 -13.421875 3.21875 -13.421875 Z M 5.078125 -12.15625 L 5.078125 0 L 1.34375 0 L 1.34375 -12.15625 Z M 5.078125 -12.15625 "/></g></g></g><g fill="#1345b7" fill-opacity="1"><g transform="translate(322.430984, 105.643143)"><g><path d="M 0.609375 -6.078125 C 0.609375 -7.335938 0.863281 -8.4375 1.375 -9.375 C 1.894531 -10.320312 2.613281 -11.050781 3.53125 -11.5625 C 4.457031 -12.070312 5.515625 -12.328125 6.703125 -12.328125 C 8.234375 -12.328125 9.507812 -11.925781 10.53125 -11.125 C 11.550781 -10.332031 12.222656 -9.207031 12.546875 -7.75 L 8.578125 -7.75 C 8.242188 -8.675781 7.597656 -9.140625 6.640625 -9.140625 C 5.960938 -9.140625 5.421875 -8.875 5.015625 -8.34375 C 4.609375 -7.820312 4.40625 -7.066406 4.40625 -6.078125 C 4.40625 -5.085938 4.609375 -4.328125 5.015625 -3.796875 C 5.421875 -3.265625 5.960938 -3 6.640625 -3 C 7.597656 -3 8.242188 -3.46875 8.578125 -4.40625 L 12.546875 -4.40625 C 12.222656 -2.976562 11.546875 -1.859375 10.515625 -1.046875 C 9.484375 -0.234375 8.210938 0.171875 6.703125 0.171875 C 5.515625 0.171875 4.457031 -0.078125 3.53125 -0.578125 C 2.613281 -1.085938 1.894531 -1.816406 1.375 -2.765625 C 0.863281 -3.710938 0.609375 -4.816406 0.609375 -6.078125 Z M 0.609375 -6.078125 "/></g></g></g><g fill="#1345b7" fill-opacity="1"><g transform="translate(335.603794, 105.643143)"><g/></g></g></g></g></svg>